<?xml version="1.0" encoding="UTF-8" standalone="no"?>
<svg
   viewBox="0 0 100 100"
   version="1.1"
	xmlns:xlink="http://www.w3.org/1999/xlink"
   >
	<defs>
		<pattern id="pattern1" width="50" height="50" patternUnits="userSpaceOnUse">
			<g transform="translate(-37.5, -12.5) scale(0.25, 0.25) rotate(90)" transform-origin="center">
        <g transform="scale(0.75, 0.75)" transform-origin="center">
				<path
          style="fill:none;stroke:grey;stroke-width:0.805544;stroke-linejoin:bevel;stroke-dasharray:none;stroke-opacity:1"
          d="m 9.2259975,36.736873 c -1.3343747,3.296129 -2.6751629,6.602882 -3.6690685,10.017144 -1.827402,6.27748 -5.04754349,12.6787 -4.1932232,19.160698 0.4084369,3.098946 2.5003569,5.779371 4.3096999,8.328207 1.6852191,2.373982 4.1557472,4.094303 5.9986413,6.348074 1.984272,2.42667 3.051655,5.62972 5.416245,7.687576 1.696488,1.47642 3.029194,1.559791 4.63545,2.90438 0.381524,0.403128 0.937383,1.029765 3.150631,1.727943 1.909657,0.602411 3.26699,0.899999 4.343539,0.843198 2.070486,0.36958 4.825899,1.056762 6.798122,1.105507 5.013926,0.123926 10.085129,-0.466296 14.952916,-1.674374 2.070432,-0.513837 3.916519,-1.715253 5.954959,-2.344131 1.255544,-0.387348 2.54655,-0.664785 3.843789,-0.873587 2.406811,-0.387401 4.90367,-0.154488 7.279902,-0.698871 1.089668,-0.249634 2.216205,-0.542542 3.144917,-1.164784 1.689185,-1.131764 2.703779,-3.04016 4.134983,-4.484421 1.537074,-1.551096 3.356993,-2.824292 4.775617,-4.484415 1.860928,-2.177722 3.590621,-4.524505 4.833855,-7.105185 1.252534,-2.599984 1.974438,-5.444559 2.562521,-8.269966 0.612905,-2.944666 -0.353901,-6.278033 0.99007,-8.968842 1.380757,-2.764452 4.943825,-3.844951 6.755747,-6.348073 1.884242,-2.603034 3.776124,-5.53654 4.076743,-8.735882 0.103082,-1.096934 -0.23159,-2.268747 -0.815347,-3.203155 -0.62031,-0.992918 -1.61089,-1.791959 -2.679004,-2.271331 -1.770848,-0.794758 -3.883858,-0.339659 -5.765682,-0.815347 -2.16761,-0.54793 -4.217031,-1.491559 -6.289832,-2.329567 -2.417682,-0.977439 -4.949045,-1.767569 -7.163426,-3.144919 -0.947674,-0.589456 -1.577146,-1.630848 -2.562521,-2.154849 -0.873479,-0.464498 -2.05601,-0.230222 -2.853724,-0.815352 -0.937774,-0.687863 -1.117923,-2.071596 -1.921893,-2.911959 -0.845569,-0.883842 -2.126122,-1.269584 -2.9702,-2.15485 -0.464451,-0.487114 -0.617534,-1.226488 -1.106548,-1.688938 -1.04271,-0.986068 -2.341192,-1.783012 -3.727306,-2.15485 -0.206252,-0.05532 -0.442257,0.07904 -0.640632,0 C 60.353942,15.873875 60.153104,15.278315 59.719394,15.013647 58.718376,14.402784 57.366726,14.512308 56.399757,13.848862 55.264234,13.06977 54.773933,11.591192 53.720753,10.703945 53.254791,10.311398 52.631118,10.143734 52.148297,9.7721177 50.853756,8.7757416 50.277411,6.5175176 48.653941,6.3360043 47.700945,6.229447 47.166448,7.87727 46.207896,7.8502234 45.49728,7.8301665 44.751916,6.6272005 44.460722,6.6272005 c -0.291197,0 -2.569355,0.5158798 -3.436116,1.3977408 -1.5466,1.573539 -0.385535,5.2465867 -2.387807,6.1733567 -1.287038,0.595716 -2.608849,-1.242152 -4.018506,-1.397742 -1.010044,-0.111487 -2.012319,0.360373 -3.028438,0.349436 -0.999291,-0.01079 -2.093383,-0.887145 -2.9702,-0.407675 -1.013559,0.554243 -0.855924,2.157791 -1.455979,3.144917 -0.790671,1.300701 -1.703572,2.550306 -2.795483,3.610832 -1.206089,1.171422 -2.833384,1.838416 -4.076747,2.9702 -1.149297,1.046162 -1.926023,2.460802 -3.086676,3.494349 -0.406204,0.361719 -0.823739,0.75912 -1.339503,0.931829 -1.436917,0.481164 -3.079898,-0.220993 -4.542657,0.174719 -0.637141,0.172362 -1.312827,0.434835 -1.7471746,0.931828 -0.4769697,0.545759 -0.6839527,1.317261 -0.7571104,2.038372 -0.1923252,1.895719 1.1251326,3.76043 0.8735871,5.649203 -0.050478,0.379047 -0.3224222,0.693857 -0.4659146,1.048307 z"
                  
          />
				<path
          style="fill:none;stroke:grey;stroke-width:0.805542;stroke-linejoin:bevel;stroke-dasharray:none;stroke-opacity:1"
          d="m 29.344263,63.125209 c 4.891828,-0.03907 12.622168,2.936811 12.416174,7.824454 -0.206047,4.888915 -8.148453,7.030126 -13.033896,6.753739 -4.291503,-0.242786 -10.734681,-2.887861 -10.707146,-7.186141 0.02889,-4.507864 6.817055,-7.35605 11.324868,-7.392052 z"
                  
          />
				<path
          style="fill:none;stroke:grey;stroke-width:0.805542;stroke-linejoin:bevel;stroke-dasharray:none;stroke-opacity:1"
          d="m 52.591129,36.089663 c -0.408685,-0.565339 0.01337,-1.514203 0.473587,-2.038478 1.136165,-1.294411 3.127625,-1.616456 4.838805,-1.811978 3.033158,-0.346572 6.256837,0.03357 9.080486,1.194257 2.215546,0.910712 3.930941,2.756476 5.724207,4.344631 1.453469,1.287224 4.056362,4.179909 4.056362,4.179909 l -0.597133,0.494175 c 0,0 -2.155624,-2.329756 -3.376867,-3.335692 -1.635462,-1.347122 -3.330556,-2.686771 -5.250623,-3.582774 -1.331067,-0.621146 -2.775108,-1.112135 -4.241673,-1.194257 -1.31249,-0.0735 -2.627654,0.277235 -3.891637,0.638311 -1.186399,0.338913 -2.198355,1.234372 -3.418054,1.420756 -1.124108,0.171776 -2.731254,0.612713 -3.39746,-0.30886 z"
                  
          />
				<path
          style="fill:none;stroke:grey;stroke-width:0.805542;stroke-linejoin:bevel;stroke-dasharray:none;stroke-opacity:1"
          d="m 23.37297,34.236499 c 0.577648,0.202892 1.279615,0.386376 1.83257,0.12354 0.429125,-0.203978 0.717412,-0.700261 0.823626,-1.163372 0.102663,-0.44762 -0.04783,-0.935918 -0.226498,-1.358983 -0.169029,-0.400255 -0.429397,-0.783112 -0.772149,-1.050127 -0.552502,-0.430419 -1.26188,-0.641939 -1.94582,-0.792741 -1.137349,-0.250776 -2.335792,-0.319591 -3.490118,-0.164723 -0.958377,0.128582 -1.911947,0.429576 -2.759151,0.895693 -0.866965,0.476991 -1.582042,1.198492 -2.285565,1.894341 -1.279312,1.265358 -3.490116,4.118133 -3.490116,4.118133 l 0.154438,0.463293 c 0,0 2.061783,-1.856895 3.170959,-2.687086 0.769635,-0.57605 1.56934,-1.117549 2.409109,-1.58548 0.462721,-0.257835 0.91887,-0.581994 1.44135,-0.669196 0.55474,-0.09259 1.132315,0.03942 1.678137,0.17502 0.721752,0.179303 1.41517,0.480216 2.069362,0.833924 0.496597,0.268499 0.857231,0.780685 1.389866,0.967764 z"
                  
          />
				<path
                  style="display:none;fill:#350000;fill-opacity:0.944444;stroke:grey;stroke-width:0.499999;stroke-linejoin:bevel;stroke-dasharray:none;stroke-opacity:1"
                  d="m 58.944097,60.822845 c 0,0 -1.586701,1.657586 -2.466655,2.38997 -0.711428,0.59212 -1.445347,1.174986 -2.262164,1.610355 -0.883996,0.471176 -1.843274,0.804771 -2.811732,1.060789 -0.900595,0.238078 -1.830527,0.382537 -2.760607,0.434541 -1.149593,0.06428 -2.307351,-0.01805 -3.45076,-0.153369 -0.801509,-0.09486 -1.587317,-0.294227 -2.377191,-0.4601 -0.54719,-0.11491 -1.079608,-0.314573 -1.635916,-0.370636 -0.966662,-0.09742 -1.944881,0.133063 -2.913975,0.0639 -0.960569,-0.06856 -1.937626,-0.164933 -2.850073,-0.472882 -0.630173,-0.212682 -1.228659,-0.537939 -1.763721,-0.932984 -0.26658,-0.196821 -0.508714,-0.434451 -0.702934,-0.702932 -0.643213,-0.889151 -1.482548,-2.939536 -1.482548,-2.939536 0,0 1.177398,2.529683 1.814843,3.770275 0.235258,0.457858 0.395215,0.973664 0.741276,1.354743 0.356672,0.392763 0.845057,0.651101 1.316402,0.894641 0.238324,0.12314 0.754055,0.281173 0.754055,0.281173 v 0 l 2.455609,0.520751 c 0,0 3.127387,0.40024 3.257806,0.40474 1.059787,0.03678 5.924391,0.202423 6.449923,0.162043 0.93895,-0.07214 2.299322,-0.207226 3.045568,-0.422941 1.40766,-0.406908 2.814706,-0.99281 3.961984,-1.904309 1.535193,-1.219693 3.04178,-3.144026 3.68081,-4.588232"
          />
				<path
          style="display:inline;fill:none;fill-stroke:grey;stroke-width:0.805542;stroke-linejoin:bevel;stroke-dasharray:none;stroke-opacity:1"
          d="m 41.410396,87.38102 c 0,0 -1.074788,1.647389 -1.79139,2.306156 -0.964239,0.886419 -2.132504,1.537069 -3.294507,2.141425 -0.978091,0.508705 -2.001077,0.95776 -3.068006,1.235443 -1.681582,0.437654 -3.442419,0.831977 -5.171206,0.657193 -1.223547,-0.123699 -2.5098,-0.489078 -3.657479,-0.930896 -0.922725,-0.35522 -1.792316,-0.689749 -2.559147,-1.43166 -0.658005,-0.636624 -0.844341,-1.727534 -0.760665,-2.639268 0.06592,-0.718307 0.530567,-1.361785 0.967758,-1.935522 0.336587,-0.441712 0.705953,-0.958162 1.239066,-1.113699 0.446313,-0.130208 0.912211,0.1952 1.375952,0.228297 1.561297,0.111422 3.135895,-0.245346 4.694672,-0.10295 2.191722,0.200217 4.281594,1.065595 6.465472,1.338389 1.840685,0.229925 5.55948,0.247091 5.55948,0.247091"
                        />
				<path
          style="fill:none;stroke:grey;stroke-width:0.805542;stroke-linejoin:bevel;stroke-dasharray:none;stroke-opacity:1"
          d="M 15.108161,60.294632 C 14.115394,59.84266 13.066224,59.42166 12.254438,58.693054 11.358443,57.888866 10.623334,56.862299 10.157826,55.75197 9.8338923,54.979327 9.7902451,54.111747 9.7210305,53.276809 9.6344145,52.23204 9.5682023,51.222568 9.7501632,50.190128 c 0.2680198,-1.520756 0.9042708,-2.962196 1.5433388,-4.367943 0.581169,-1.278385 1.073021,-2.6804 2.070294,-3.669069 0.82629,-0.819162 1.899685,-1.60711 3.054745,-1.747175 0.998101,-0.121024 2.013341,0.3353 2.911959,0.78623 0.98233,0.492935 1.921491,1.167255 2.591646,2.038371 1.03127,1.340523 1.591406,3.02026 2.009253,4.659139 0.443122,1.738008 0.589393,3.566879 0.495033,5.358004 -0.0703,1.334482 -0.350183,2.667958 -0.786229,3.931148 -0.379608,1.099692 -0.695004,2.351929 -1.572458,3.115799 -0.618915,0.538798 -1.514131,0.704044 -2.329565,0.795837 -1.134786,0.127743 -2.293575,-0.105362 -3.406996,-0.359046 -0.422075,-0.09616 -0.82903,-0.257426 -1.223012,-0.436791 z"
                  
          />
				<path
          style="fill:none;stroke:grey;stroke-width:0.402772;stroke-linejoin:bevel;stroke-dasharray:none;stroke-opacity:1"
          d="m 60.97415,61.761665 2.821988,3.104744 1.572456,3.406994 -1.42686,-1.613514 0.84447,2.661818 -5.212409,2.096611 -4.48442,-3.115795 -4.808462,-1.834534 2.420658,2.096611 -7.629339,-3.348754 -5.066814,-1.951017 1.742304,1.718057 -7.682699,-3.436111 1.193901,1.339503 -4.040902,-1.630698 -2.947805,0.640628 0.640634,-0.805739 -4.921212,1.631581 1.019188,-1.146157 -9.201797,4.51354 1.339503,-1.281262 -3.1158,0.990066 c 0,0 -4.6300177,-1.281265 -4.4844171,-1.36862 0.145594,-0.08735 5.5618451,-4.134985 5.5618451,-4.134985"
                  />
				<path
          style="fill:none;stroke:grey;stroke-width:0.402772;stroke-linejoin:bevel;stroke-dasharray:none;stroke-opacity:1"
          d="M 4.7575691,49.292749 6.5178756,48.064396 6.0810837,47.07433 9.4589564,47.307285 8.0320963,46.404579 10.677647,46.608416"
                  />
				<path
          style="fill:none;stroke:grey;stroke-width:0.402772;stroke-linejoin:bevel;stroke-dasharray:none;stroke-opacity:1"
          d="m 88.489563,54.791024 0.291195,-2.88284 -0.640632,-2.358686 2.30045,-0.873588 2.27133,-2.009254 2.12573,-2.332875 1.077426,-1.831226 -1.514222,0.844465 1.776299,-2.329567 -0.640633,0.203837 0.524154,-0.84447 -0.640631,-1.223021 -1.485104,-0.291195 -1.834533,0.553269 -2.271327,1.281265 -0.931828,1.135666 -0.640634,2.096609 -0.495033,2.329571 0.203837,2.504285 0.174719,0.786229"
                  />
				<path
          style="fill:none;stroke:grey;stroke-width:0.402772;stroke-linejoin:bevel;stroke-dasharray:none;stroke-opacity:1"
          d="m 78.568074,28.994638 2.87454,3.461651 0.727993,1.776294 1.601581,1.921894 2.009253,4.833857 -0.873589,-0.611514 2.067492,3.20316 0.261756,0.990064 0.69919,-1.807573 0.960947,-0.929667"
                  />
				<path
          style="fill:none;stroke:grey;stroke-width:0.402772;stroke-linejoin:bevel;stroke-dasharray:none;stroke-opacity:1"
          d="m 9.6919121,35.688566 0.9857349,-2.358689 c 0,0 1.271034,-2.256769 1.271034,-2.329567 0,-0.0728 1.237587,-1.655359 1.310384,-1.655359 0.0728,0 2.148041,-2.335586 2.148041,-2.335586"
                  />
				<path
          style="fill:none;stroke:grey;stroke-width:0.402772;stroke-linejoin:bevel;stroke-dasharray:none;stroke-opacity:1"
          d="m 71.192517,24.972549 0.232956,1.193908 -1.193902,0.13103 1.659815,1.47054 -0.71343,-0.116482 0.71343,2.460608 -2.22765,-0.05824 -1.965571,-0.436794 -0.85903,0.52415 -5.285205,0.08735 -6.78487,-3.261396 0.422233,1.455984 -1.42686,0.442753 -5.780243,3.765028 -1.892772,0.145594 -1.805416,-0.626073 -5.85304,-3.086675 -4.193221,-1.71806 0.04368,-1.397738 0.465914,-1.135665 c 0,0 -2.416926,0.291197 -2.475162,0.291197 -0.05824,0 -4.164107,0 -4.164107,0 l -7.381818,2.242206 -1.135666,-0.71343 -2.548673,0.727993 0.160866,-1.397744"
                  />
				<path
          style="fill:none;stroke:grey;stroke-width:0.402772;stroke-linejoin:bevel;stroke-dasharray:none;stroke-opacity:1"
          d="m 70.231571,26.297487 -3.432879,-2.026871 -5.127078,-2.429698 -5.435936,-1.935522 -2.759149,-0.998649 -3.582777,-0.514766 -1.153079,0.638312 -1.884046,0.164723 -0.936875,0.741266 0.380926,1.492823"
                  />
				<path
          style="fill:none;stroke:grey;stroke-width:0.402772;stroke-linejoin:bevel;stroke-dasharray:none;stroke-opacity:1"
          d="M 51.267428,17.568892 50.422958,16.899141 49.993443,15.44316 48.87234,12.58216 47.787634,10.099712 46.207896,7.8502234"
                  />
				<path
          style="fill:none;stroke:grey;stroke-width:0.402772;stroke-linejoin:bevel;stroke-dasharray:none;stroke-opacity:1"
          d="m 49.796543,14.940685 0.611854,-2.07461 0.946391,-1.215743 1.157502,0.240237 1.827255,1.033746 -1.716515,-2.855796"
                  />
				<path
          style="display:inline;fill:none;stroke:grey;stroke-width:0.402772;stroke-linejoin:bevel;stroke-dasharray:none;stroke-opacity:1"
          d="m 48.617543,15.53052 c 0,-0.06552 -1.383182,-1.696218 -1.383182,-1.696218 l -2.052929,-0.487753 -1.584691,-0.02184 -1.997023,0.604232 -0.975504,0.378555 -0.669751,1.121105 -1.317664,-1.230305"
                  />
				<path
          style="display:inline;fill:none;stroke:grey;stroke-width:0.402772;stroke-linejoin:bevel;stroke-dasharray:none;stroke-opacity:1"
          d="m 25.152231,18.6719 c 0,0 2.448237,-1.037489 2.506477,-1.066609 0.05824,-0.02911 1.688939,-0.407675 1.688939,-0.407675 l 0.684308,-1.849094 0.75711,-1.470539 0.80079,-0.727991"
                  />
				<path
          style="display:inline;fill:none;stroke:grey;stroke-width:0.402772;stroke-linejoin:bevel;stroke-dasharray:none;stroke-opacity:1"
          d="m 29.347647,17.197616 1.732614,-0.64063 1.4123,0.742549"
                  />
				<path
          style="display:inline;fill:none;stroke:grey;stroke-width:0.402772;stroke-linejoin:bevel;stroke-dasharray:none;stroke-opacity:1"
          d="M 42.233069,20.196935 40.602371,18.192641 38.083528,17.110258"
                  />
				<path
          style="display:inline;fill:none;stroke:grey;stroke-width:0.402772;stroke-linejoin:bevel;stroke-dasharray:none;stroke-opacity:1"
          d="m 39.954463,15.428599 0.647908,2.764042"
                  />
				<path
          style="display:inline;fill:grey;stroke:grey;stroke-width:0.438811;stroke-linejoin:bevel;stroke-dasharray:none;stroke-opacity:1"
          d="m 28.714459,84.381014 c 0.06458,0.663556 -1.340792,1.484102 -1.340792,1.484102 l 2.971098,0.08901 c 0,0 -1.538346,-0.963907 -1.603997,-1.56032 -0.02858,-0.25958 -0.779784,-4.521718 -0.779784,-4.521718 0,0 0.71733,4.137539 0.753475,4.508926 z"
                        />
				<path
          style="display:inline;fill:none;stroke:grey;stroke-width:0.402772;stroke-linejoin:bevel;stroke-dasharray:none;stroke-opacity:1"
          d="m 20.262426,41.658507 c 0,0 -1.242859,0.938715 -2.154946,1.761315 -0.972444,0.877036 -1.933449,1.808346 -2.549828,2.783964 -0.685271,1.084657 -1.237844,2.277519 -1.556038,3.52043 -0.311668,1.217425 -0.4042,2.502544 -0.320313,3.756429 0.07765,1.160771 0.368237,2.310543 0.75711,3.406992 0.279227,0.787294 0.643831,1.555341 1.119241,2.242208 0.463603,0.669811 1.661999,1.791626 1.661999,1.791626 l 2.518523,0.168998 1.65173,-0.378981 c 0,0 -1.461252,-0.807115 -2.088522,-1.348684 -0.644859,-0.556755 -1.209174,-1.215101 -1.684848,-1.921894 -0.509312,-0.756774 -0.916987,-1.588187 -1.227111,-2.44605 -0.247344,-0.6842 -0.436912,-1.400518 -0.495032,-2.125729 -0.06762,-0.84377 -0.0048,-1.706206 0.174717,-2.533405 0.228765,-1.053575 0.551979,-2.121982 1.135662,-3.028441 0.468193,-0.727108 0.968958,-1.360647 1.834533,-2.250246 0.525148,-0.539724 1.217076,-0.989318 1.835022,-1.419693 0.573297,-0.399278 0.993592,-0.876741 0.993592,-0.876741 z"
                  
          />
				<path
          style="fill:none;stroke:grey;stroke-width:0.402772;stroke-linejoin:bevel;stroke-dasharray:none;stroke-opacity:1"
          d="m 21.640967,43.026053 c 0,0 1.222582,1.714852 1.560436,2.533681 0.429554,1.041079 0.729385,2.139409 0.935008,3.246695 0.22184,1.194611 0.337392,2.416527 0.316064,3.631374 -0.02006,1.142964 -0.1612,2.289828 -0.417097,3.403957 -0.263208,1.145958 -0.524335,2.33684 -1.141728,3.337502 -0.375758,0.609026 -0.793502,1.444692 -1.503746,1.532226 -0.623509,0.07685 -1.110888,-0.599185 -1.607203,-0.984331 -0.627742,-0.487137 -1.221374,-1.034012 -1.710721,-1.660034 -0.610294,-0.780747 -1.116701,-1.653926 -1.493931,-2.570289 -0.344526,-0.83692 -0.616259,-1.725155 -0.683658,-2.627703 -0.0807,-1.080597 0.04751,-2.189986 0.342167,-3.232759 0.207776,-0.735298 0.613961,-1.62323 1.070457,-2.354648 0.573161,-0.918343 1.22477,-1.784053 2.065344,-2.506225 0.737365,-0.633498 2.268608,-1.749446 2.268608,-1.749446 z"
                  
          />
				<path
          style="display:inline;fill:none;stroke:grey;stroke-width:0.402772;stroke-linejoin:bevel;stroke-dasharray:none;stroke-opacity:1"
          d="m 72.50152,58.411862 c 0.150347,-0.06028 0.283367,-1.352976 0.309645,-2.040392 0.03891,-1.017865 -0.04439,-2.045224 -0.226498,-3.04742 -0.191827,-1.055624 -0.460326,-2.112624 -0.905988,-3.088598 -0.386384,-0.846161 -0.884955,-1.657655 -1.509148,-2.347336 -0.733339,-0.810276 -1.634371,-1.470113 -2.567803,-2.038477 -0.771776,-0.469931 -1.57537,-1.00035 -2.471974,-1.11248 -1.392997,-0.174209 -2.805111,0.319852 -4.147909,0.729346 -1.211521,0.369461 -2.387773,0.888724 -3.472751,1.542261 -1.110313,0.668797 -2.177048,1.451609 -3.056713,2.403594 -0.833715,0.902256 -1.447415,1.992932 -2.042535,3.067631 -0.421826,0.761755 -0.837487,1.543119 -1.074747,2.380924 -0.198975,0.702612 -0.279466,2.172828 -0.279466,2.172828 0,0 0.207044,1.742935 0.526555,2.549872 0.280206,0.707676 0.686755,1.378943 1.194257,1.946187 0.35307,0.394633 1.253541,0.975793 1.253541,0.975793 l 3.432499,-0.08935 4.334933,-0.886448 7.53472,-1.847131 z"
                  
          />
				<path
          style="display:inline;fill:none;stroke:grey;stroke-width:0.402772;stroke-linejoin:bevel;stroke-dasharray:none;stroke-opacity:1"
          d="m 57.462485,62.41625 c 0,0 -1.286309,-0.681596 -1.762163,-1.325781 -0.520383,-0.704462 -1.547423,-2.105447 -1.873752,-3.339424 -0.305334,-1.154587 -0.217299,-2.40481 -0.02058,-3.582776 0.215592,-1.291047 0.873082,-2.331613 1.604477,-3.417129 0.638591,-0.947779 1.576488,-1.672469 2.519613,-2.264975 1.171885,-0.736221 2.636437,-0.943773 4.020214,-0.921546 1.375211,0.02208 2.547008,0.0492 3.747863,0.71975 1.12596,0.628728 2.100412,1.656416 2.809571,2.73353 0.686932,1.043356 1.089191,2.276336 1.338394,3.500413 0.187709,0.922019 0.184692,1.979379 0.10295,2.820921 -0.179976,1.852875 -0.40682,2.308209 -0.40682,2.308209 l -6.099825,1.443027 z"
                  
          />
				<path
          style="fill:none;stroke:grey;stroke-width:0.402772;stroke-linejoin:bevel;stroke-dasharray:none;stroke-opacity:1"
          d="m 86.834438,66.650455 -0.09206,-3.928405 -1.426862,-2.747737 0.407675,-0.524149 -1.397743,-1.892777 -2.591646,-1.193901 2.416931,0.757109 c 0,0 -0.990069,-1.164787 -1.106548,-1.164787 -0.116481,0 -2.329566,-1.048302 -2.329566,-1.048302 l 1.688937,-0.669751 -3.52347,-0.75711 h -3.232277 l 0.02911,0.05824"
                  
          />
				<path
          style="fill:none;stroke:grey;stroke-width:0.805542;stroke-linejoin:bevel;stroke-dasharray:none;stroke-opacity:1"
          d="m 75.647809,53.480645 c 0,0 -0.102256,1.919434 -0.582393,2.708123 -0.172651,0.283602 -0.379136,0.543809 -0.609997,0.784209 -0.660942,0.688247 -1.521671,1.214135 -2.360202,1.661835 -1.904372,1.016764 -4.106712,1.345763 -6.202475,1.863658 -3.494642,0.863581 -6.999989,2.02807 -10.599537,2.067489 -0.856877,0.0094 -1.774213,-0.03935 -2.533405,-0.436792 -0.723633,-0.37882 -1.417466,-0.987709 -1.718057,-1.747178 -0.460931,-1.164582 -0.12763,-2.522538 0.08735,-3.756429 0.284507,-1.632918 0.781073,-3.260988 1.572461,-4.717376 0.735354,-1.353273 1.715921,-2.605646 2.88284,-3.610828 1.070923,-0.922492 2.376745,-1.553229 3.669069,-2.125732 1.313513,-0.58189 2.681227,-1.125103 4.105861,-1.310384 1.532387,-0.199297 3.142153,-0.184389 4.630021,0.232955 1.392561,0.390611 2.721379,1.120645 3.814665,2.067494 1.081227,0.936407 1.839527,2.207724 2.562526,3.441894 0.541614,0.924541 1.310382,2.935298 1.310382,2.935298"
                  
          />
				<path
          style="fill:none;fill-opacity:0.944444;fill-rule:nonzero;stroke:grey;stroke-width:0.805544;stroke-linejoin:bevel;stroke-dasharray:none"
          d="m 41.410396,87.38102 c 0,0 2.767546,-0.392983 4.118133,-0.741267 1.284148,-0.331149 2.543193,-0.768365 3.768091,-1.276618 0.771154,-0.31998 1.55168,-0.645826 2.244387,-1.111898 0.695939,-0.468245 1.895221,-1.492269 2.524924,-2.046397 1.324647,-1.165661 3.343413,-3.106914 3.343413,-3.106914 0,0 -0.3517,0.986525 -0.597123,1.44699 -0.221155,0.414933 -0.501586,0.796578 -0.782446,1.173669 -0.65511,0.879572 -1.332194,1.749765 -2.100249,2.532651 -0.736153,0.75037 -1.519156,1.468146 -2.388516,2.059069 -1.211109,0.823218 -2.52908,1.50191 -3.891639,2.038477 -1.303379,0.513262 -2.670246,0.885507 -4.05263,1.111897 -1.310599,0.214636 -4.065092,0.255616 -4.065092,0.255616 l 1.878747,-2.335275 v 0"
                  
          />
				<path
          style="display:inline;fill:none;fill-opacity:0.944444;stroke:grey;stroke-width:0.805542;stroke-linejoin:bevel;stroke-dasharray:none"
          d="m 23.31482,85.670192 c 0,0 -1.448346,-0.130031 -2.165643,-0.245286 -0.629973,-0.101221 -1.286292,-0.142211 -1.873751,-0.391222 -0.878113,-0.372201 -1.72156,-0.904769 -2.367926,-1.606071 -1.586971,-1.721849 -3.456976,-6.115429 -3.456976,-6.115429 0,0 2.060335,4.611462 3.251067,6.836102 0.384942,0.719185 0.692796,1.510187 1.25603,2.100249 0.523129,0.548045 1.205092,0.941471 1.894344,1.25603 0.468168,0.213661 1.487596,0.41298 1.487596,0.41298 0.544662,-1.138536 1.249922,-1.727304 1.975259,-2.247353 z"
                  
          />
          </g>
			</g>
		</pattern>
	</defs>
	<rect width="100%" height="100%" fill="url(#pattern1)" transform="rotate(0)" transform-origin="center" />
	<rect width="100%" height="100%" fill="url(#pattern1)" transform="rotate(90)" transform-origin="center" />
	<rect width="100%" height="100%" fill="url(#pattern1)" transform="rotate(180)" transform-origin="center" />
	<rect width="100%" height="100%" fill="url(#pattern1)" transform="rotate(270)" transform-origin="center" />
</svg>
