<svg xmlns="http://www.w3.org/2000/svg" width="1032" height="718" viewBox="0 0 1032 718" version="1.1"><path d="M 499 65.576 C 462.406 69.749, 433.932 79.255, 400.354 98.511 C 305.742 152.768, 187.582 285.297, 97.140 438.598 C 93.158 445.348, 92.549 445.898, 84.726 449.806 C 69.003 457.661, 59.592 467.646, 55.104 481.234 C 49.658 497.721, 48.836 566.196, 53.987 574.318 C 61.754 586.566, 77.928 590.930, 101.500 587.139 C 174.411 575.410, 369.127 580.727, 482.073 597.530 C 555.679 608.481, 626.337 628.669, 659.833 648.320 C 697.910 670.656, 725 650.270, 734.047 592.473 C 740.047 554.136, 739.304 549.534, 724.609 534.013 C 719.914 529.053, 719.832 528.858, 720.482 524.133 C 722.901 506.540, 710.233 457.224, 689.540 403.678 C 682.779 386.185, 682.540 386.978, 693.092 391.917 C 711.722 400.637, 741.488 411.412, 768 419.033 C 781.813 423.004, 781.423 422.715, 780.017 427.937 C 771.089 461.093, 785.601 493.382, 820.272 517.500 C 831.525 525.328, 831.446 526.211, 818.987 531.781 C 812.500 534.682, 812.500 534.682, 815.500 536.227 C 831.058 544.239, 873.686 540.688, 906.469 528.649 C 914.757 525.605, 914.963 525.768, 914.985 535.358 C 915.003 543.386, 915.954 543.590, 925.857 537.691 C 953.489 521.231, 968.404 472.223, 957.261 434.500 C 953.138 420.543, 956.259 415.451, 966.647 419.187 C 970.982 420.746, 970.982 420.746, 967.970 415.123 C 958.523 397.487, 936.824 379.673, 912.750 369.788 C 903.182 365.860, 903.130 366.309, 914 359 C 941.384 340.587, 882.728 349.061, 847.298 368.637 C 841.959 371.587, 837.345 373.975, 837.045 373.944 C 836.435 373.880, 821.358 355.026, 767.521 287 C 662.855 154.749, 635.151 123.457, 598.147 95.695 C 568.332 73.328, 530.859 61.944, 499 65.576 M 485 79.576 C 382.178 95.370, 247.428 222.535, 125.326 419 C 111.434 441.353, 111.686 439.640, 122.714 436.714 C 132.097 434.225, 132.681 434.434, 130.559 439.514 C 127.750 446.236, 128.015 446.295, 139.876 441.551 C 175.521 427.295, 231.154 418.586, 294.500 417.347 C 330.180 416.649, 332.116 417.059, 320 422.746 C 315.325 424.941, 308.424 428.182, 304.664 429.949 C 296.186 433.933, 296.630 434.493, 307.186 433.134 C 336.299 429.386, 426.705 427.932, 455 430.757 C 483.266 433.580, 507.032 437.726, 506.985 439.828 C 506.977 440.197, 501.716 443.650, 495.294 447.500 C 476.767 458.607, 476.752 457.928, 495.517 457.967 C 531.410 458.041, 578.467 462.718, 606.500 468.997 C 631.850 474.675, 653 480.573, 653 481.965 C 653 483.051, 651.587 483.464, 642.500 485.038 C 629.179 487.344, 625.797 488.571, 630.500 489.392 C 649.989 492.791, 670.400 499.329, 688.813 508.071 C 695.682 511.332, 701.525 514, 701.799 514 C 706.063 514, 695.174 465.609, 681.979 425.917 C 666.293 378.733, 619.803 314.332, 575.987 279.087 C 564.913 270.180, 564.539 269.571, 572.867 274.010 C 585.488 280.737, 597.910 291.336, 614.168 309.251 C 619.284 314.888, 624.718 320.556, 626.243 321.846 C 629.302 324.433, 629.437 324.970, 624.651 315.500 C 624.095 314.400, 621.869 310.440, 619.704 306.699 C 614.548 297.790, 615.403 297.230, 621.117 305.774 C 659.463 363.117, 692.727 389.838, 748.750 408.301 C 779.967 418.589, 782.554 418.787, 786.408 411.181 C 790.150 403.797, 801.269 388.180, 808.501 380.150 C 815.752 372.099, 817.414 369.480, 816.358 367.771 C 815.954 367.117, 808.846 358.686, 800.562 349.035 C 771.276 314.918, 741.082 278.645, 693.983 221 C 587.332 90.469, 555.282 68.780, 485 79.576 M 889.803 361.079 C 869.260 364.092, 841.760 379.379, 822.057 398.739 C 816.314 404.383, 811.267 409, 810.843 409 C 809.386 409, 808 405.130, 808 401.066 C 808 395.370, 806.960 395.942, 802.219 404.250 C 776.450 449.406, 785.780 487.659, 829.941 517.905 C 839.520 524.466, 840.779 526.565, 836.750 529.263 C 833.175 531.657, 840.948 533.318, 856 533.376 C 879.887 533.468, 900.657 526.044, 915.193 512.218 C 921.400 506.315, 921.416 506.331, 924.688 521.423 C 926.260 528.675, 931.581 524.868, 939.465 510.849 C 953.938 485.113, 956.950 461.524, 949.531 432 C 945.615 416.414, 945.663 417.246, 948.523 414.386 C 950.725 412.184, 951.809 411.863, 956.048 412.157 C 962.438 412.600, 962.474 412.691, 952.508 403.123 C 939.241 390.386, 925.295 382.181, 905.365 375.386 C 890.348 370.267, 890.203 370.116, 895 364.653 C 899.494 359.535, 899.642 359.637, 889.803 361.079 M 259 424.658 C 200.252 427.729, 173.491 433.642, 129 453.381 C 112.333 460.775, 113.090 460.730, 116.433 454.133 C 120.115 446.865, 119.914 446.735, 110.250 450.128 C 69.869 464.306, 63.177 474.999, 61.830 527.500 C 60.857 565.401, 60.920 566.356, 64.657 570.386 C 72.542 578.889, 102.261 581.055, 100.652 573.009 C 100.073 570.114, 100.073 570.114, 104.286 571.673 C 109.522 573.610, 120.846 573.789, 136 572.175 C 142.325 571.501, 163.155 570.664, 182.290 570.315 C 220.263 569.622, 219.807 569.702, 213.989 564.723 C 209.964 561.278, 209.964 561.278, 219.865 564.057 C 239.945 569.694, 268.124 572.440, 321.500 573.961 C 340.750 574.509, 360.550 575.261, 365.500 575.632 C 370.450 576.003, 398.350 576.575, 427.500 576.903 C 475.348 577.442, 479.917 577.632, 474.500 578.863 C 460.469 582.050, 458.730 583.397, 467.250 584.479 C 477.099 585.730, 514.451 592.052, 541 596.962 C 586.464 605.370, 595.711 607, 597.948 607 C 599.142 607, 599.840 607.450, 599.500 608 C 599.160 608.550, 597.709 609, 596.274 609 C 591.745 609, 594.548 610.211, 613.771 616.562 C 636.286 624, 650.412 629.965, 663.091 637.388 C 697.251 657.388, 715.538 642.639, 723.733 588.480 C 731.502 537.135, 705.426 512.451, 622.807 492.942 C 604.947 488.725, 606.065 489.206, 608.847 486.937 C 610.138 485.884, 613.063 484.491, 615.347 483.842 C 622.127 481.917, 621.645 481.426, 609.809 478.201 C 578.081 469.557, 555.350 466.357, 512.500 464.505 C 459.029 462.192, 462.438 462.949, 472.215 455.570 C 486.171 445.038, 487.762 446.032, 453 443.565 C 417.060 441.016, 409.351 440.768, 366.347 440.786 C 322.708 440.803, 312.184 441.157, 283.580 443.568 C 274.274 444.352, 266.556 444.883, 266.428 444.747 C 266.300 444.611, 271.097 440.287, 277.087 435.137 C 290.919 423.248, 290.508 423.010, 259 424.658" stroke="none" fill="#000000" fill-rule="evenodd"/><path d="M 889.803 361.079 C 869.260 364.092, 841.760 379.379, 822.057 398.739 C 816.314 404.383, 811.267 409, 810.843 409 C 809.386 409, 808 405.130, 808 401.066 C 808 395.369, 806.960 395.943, 802.224 404.250 C 776.552 449.282, 785.902 487.742, 829.834 517.832 C 840.739 525.301, 840.787 525.366, 837.535 528.380 C 834.338 531.343, 834.803 531.570, 847.121 533.068 C 870.776 535.944, 898.185 527.729, 914.349 512.917 C 917.927 509.638, 921.062 507.303, 921.316 507.728 C 921.569 508.153, 922.556 512.100, 923.508 516.500 C 926.017 528.096, 927.172 528.322, 934.427 518.643 C 952.081 495.091, 957.539 463.795, 949.536 432 C 945.615 416.423, 945.662 417.247, 948.523 414.386 C 950.725 412.184, 951.809 411.863, 956.048 412.157 C 962.427 412.599, 962.452 412.667, 952.750 403.370 C 939.251 390.435, 925.249 382.165, 905.365 375.386 C 890.348 370.267, 890.203 370.116, 895 364.653 C 899.494 359.535, 899.642 359.637, 889.803 361.079 M 261.500 424.667 C 207.062 426.464, 173.845 433.546, 131.308 452.423 C 112.181 460.911, 113.048 460.812, 116.433 454.133 C 120.115 446.865, 119.914 446.735, 110.250 450.128 C 82.490 459.875, 68.076 473.175, 63.583 493.186 C 61.018 504.614, 60.951 565.746, 63.500 569.247 C 70.178 578.420, 102.386 581.681, 100.652 573.009 C 100.073 570.114, 100.073 570.114, 104.286 571.687 C 109.397 573.594, 121.392 573.768, 136 572.147 C 141.775 571.506, 162.025 570.724, 181 570.410 C 221.510 569.739, 219.860 570.010, 214.064 564.977 C 209.627 561.124, 209.627 561.124, 218.044 563.571 C 235.269 568.579, 258.564 571.407, 295.494 572.974 C 357.660 575.612, 384.155 576.387, 430.500 576.922 C 475.782 577.445, 479.934 577.629, 474.500 578.863 C 457.821 582.652, 458.067 582.981, 480.077 586.320 C 490.019 587.828, 507.906 590.859, 519.827 593.055 C 582.184 604.543, 595.945 607, 597.938 607 C 599.137 607, 599.840 607.450, 599.500 608 C 599.160 608.550, 597.709 609, 596.274 609 C 591.745 609, 594.548 610.211, 613.771 616.562 C 636.286 624, 650.412 629.965, 663.091 637.388 C 700.210 659.120, 731.190 621.444, 726.795 559.915 C 724.824 532.325, 679.524 505.361, 608.509 489.509 C 604.943 488.713, 610.529 484.571, 616.761 483.391 C 622.419 482.319, 621.253 481.311, 611.236 478.612 C 575.256 468.918, 552.286 465.802, 503.500 463.998 C 460.477 462.407, 462.448 462.941, 472.266 455.532 C 483.900 446.752, 484.108 446.405, 478.204 445.622 C 438.925 440.411, 333.529 439.228, 284.580 443.448 C 274.724 444.298, 266.537 444.870, 266.387 444.720 C 266.237 444.570, 271.039 440.255, 277.059 435.131 C 291.279 423.025, 292.213 423.652, 261.500 424.667" stroke="none" fill="#fafafa" fill-rule="evenodd"/><path d="M 485 79.576 C 382.178 95.370, 247.428 222.535, 125.326 419 C 111.434 441.353, 111.686 439.640, 122.714 436.714 C 132.097 434.225, 132.681 434.434, 130.559 439.514 C 127.750 446.236, 128.015 446.295, 139.876 441.551 C 175.521 427.295, 231.154 418.586, 294.500 417.347 C 330.180 416.649, 332.116 417.059, 320 422.746 C 315.325 424.941, 308.424 428.182, 304.664 429.949 C 296.186 433.933, 296.630 434.493, 307.186 433.134 C 336.299 429.386, 426.705 427.932, 455 430.757 C 483.266 433.580, 507.032 437.726, 506.985 439.828 C 506.977 440.197, 501.716 443.650, 495.294 447.500 C 476.767 458.607, 476.752 457.928, 495.517 457.967 C 531.410 458.041, 578.467 462.718, 606.500 468.997 C 631.850 474.675, 653 480.573, 653 481.965 C 653 483.051, 651.587 483.464, 642.500 485.038 C 629.179 487.344, 625.797 488.571, 630.500 489.392 C 649.989 492.791, 670.400 499.329, 688.813 508.071 C 695.682 511.332, 701.525 514, 701.799 514 C 706.063 514, 695.174 465.609, 681.979 425.917 C 666.293 378.733, 619.803 314.332, 575.987 279.087 C 564.913 270.180, 564.539 269.571, 572.867 274.010 C 585.488 280.737, 597.910 291.336, 614.168 309.251 C 619.284 314.888, 624.718 320.556, 626.243 321.846 C 629.302 324.433, 629.437 324.970, 624.651 315.500 C 624.095 314.400, 621.869 310.440, 619.704 306.699 C 614.548 297.790, 615.403 297.230, 621.117 305.774 C 659.463 363.117, 692.727 389.838, 748.750 408.301 C 779.967 418.589, 782.554 418.787, 786.408 411.181 C 790.150 403.797, 801.269 388.180, 808.501 380.150 C 815.752 372.099, 817.414 369.480, 816.358 367.771 C 815.954 367.117, 808.846 358.686, 800.562 349.035 C 771.276 314.918, 741.082 278.645, 693.983 221 C 587.332 90.469, 555.282 68.780, 485 79.576" stroke="none" fill="#6E4A9E" fill-rule="evenodd"/></svg>