<svg
   width="199.62982mm"
   height="125.77747mm"
   viewBox="0 0 199.62982 125.77747"
   version="1.1"><path
     d="M 114.89229,5.0806265e-7 C 24.666605,2.6026545 7.736043,39.687501 7.736043,39.687501 l -3.96875,75.935409 c -5.0294458,10e-6 -5.0166634,6.08542 0,6.08542 47.354033,4.91626 88.635417,3.96875 88.635417,3.96875 0,0 61.54484,0.75041 103.1875,-1.85208 5.29691,0 5.29216,-6.35 0.52916,-6.35 L 194.26729,71.437504 C 193.36357,62.761869 182.36104,60.854167 182.36104,60.854167 l -32.3243,-8.695645 -9.6691,0.425847 -6.57782,-15.541159 -0.94228,-14.012786 -4.56888,-1.582389 z M 113.45734,28.383254 c 4.79557,0 9.55036,4.453307 9.48891,8.757477 l -0.20449,14.323648 -18.72219,0.460101 0.20449,-15.652829 c 0.0562,-4.304242 4.43795,-7.888397 9.23328,-7.888397 z m -26.511662,3.366747 c 4.051339,0 6.773683,3.954601 6.773683,7.364317 v 13.504108 l -15.132159,1.329181 0.102245,-15.549002 c 0.02242,-3.409642 4.204893,-6.648604 8.256231,-6.648604 z m -23.4611,2.645833 c 3.400243,0 5.80459,3.778181 5.931539,7.135503 l 0.511223,13.51994 -12.936646,1.94265 0.357857,-14.18453 c 0.08473,-3.358654 2.735806,-8.413563 6.136027,-8.413563 z M 43.87854,40.431641 c 2.857643,0 4.376444,4.12754 4.539598,7.154767 l 0.613469,11.382497 -10.306135,2.300507 0.357857,-12.813924 c 0.08463,-3.030439 1.937567,-8.023847 4.795211,-8.023847 z m -16.536459,7.19336 c 1.865499,0 2.663947,3.954875 2.759714,6.54288 l 0.357857,9.670683 -7.30871,2.24938 0.562346,-11.766695 c 0.123628,-2.586825 1.763314,-6.696248 3.628793,-6.696248 z m -13.219939,8.964912 c 1.157533,0 2.110614,3.080697 2.110614,5.561109 v 7.254112 l -4.630208,1.3803 -0.204489,-8.532168 c -0.05943,-2.4797 1.56655,-5.663353 2.724083,-5.663353 z m 99.065378,5.716543 c 4.79557,0 9.32314,4.146198 9.33554,8.450738 l 0.0511,17.74885 H 103.6986 l 0.35786,-17.54436 c 0.0878,-4.30366 4.33564,-8.655228 9.13104,-8.655228 z m 25.35191,0.180687 c 4.05125,0 8.05478,3.993481 8.10286,8.196051 l 0.20449,17.87397 -15.64338,-0.0511 -0.20449,-17.465 c -0.0492,-4.20255 3.48909,-8.553901 7.54052,-8.553901 z m -52.916668,1.012861 c 4.051366,0 8.102864,4.75566 8.102864,8.74525 v 16.39016 l -15.694505,0.25561 0.204491,-16.44128 c 0.04962,-3.98928 3.335785,-8.94974 7.387152,-8.94974 z m 79.455468,3.15501 c 3.16257,0 6.17182,4.74553 6.17182,7.89695 l -0.0511,10.78133 -12.29253,-2.14714 -0.15337,-9.19653 c -0.0525,-3.15099 3.1626,-7.33461 6.3252,-7.33461 z M 62.977595,66.503694 c 3.493266,0 6.782164,4.59929 6.782164,8.3789 v 14.3089 l -13.257594,0.97133 0.408979,-15.12686 c 0.10215,-3.77823 2.57317,-8.53227 6.066451,-8.53227 z m -19.522802,4.93381 c 2.408093,0 4.689653,3.46673 4.713998,6.6163 l 0.102245,13.22745 -9.530241,0.86908 -0.102245,-13.99429 c -0.02301,-3.14957 2.40815,-6.71854 4.816243,-6.71854 z m 140.807937,0 c 2.35644,0 4.5255,2.49631 4.55952,5.64756 l 0.15337,14.20652 h -9.42578 l 0.40898,-13.28631 c 0,-3.15144 1.94748,-6.56777 4.30391,-6.56777 z m -157.768142,3.96875 c 1.865493,0 3.37135,3.61735 3.424304,6.55669 l 0.204489,11.35067 -7.001974,0.61347 0.05112,-11.29955 c 0.0133,-2.93979 1.456566,-7.22128 3.322059,-7.22128 z m -12.80542,4.15788 c 1.653622,0 2.796068,5.50293 2.796068,8.02278 v 7.69885 l -5.745503,0.92021 0.255611,-7.90335 c 0.08146,-2.51854 1.040202,-8.73849 2.693824,-8.73849 z m 99.522342,19.30409 c 4.79557,0 8.97801,3.635136 9.02881,7.939516 l 0.15336,12.99447 -18.82443,-0.0511 0.86908,-12.84111 c 0,-4.30467 3.97767,-8.041756 8.77318,-8.041756 z m 25.45415,-0.43278 c 4.05143,0 7.98547,3.789066 8.05175,7.991556 l 0.20449,12.96623 -15.95012,0.35786 0.35786,-13.37521 c 0.11241,-4.20151 3.28464,-7.940436 7.33602,-7.940436 z m -52.724167,0.44738 c 4.051403,0 7.728075,5.011156 7.745009,9.000866 l 0.05112,12.04475 -15.592261,-0.15337 0.357857,-12.35148 c 0,-3.98975 3.386871,-8.540766 7.438273,-8.540766 z m -22.64295,1.658836 c 3.307267,0 6.033291,4.23568 6.154482,7.38314 l 0.460101,11.94939 -13.229166,-0.15337 0.460101,-11.69377 c 0,-3.1498 2.847215,-7.48539 6.154482,-7.48539 z m 98.829337,-0.35786 c 3.3486,0 6.16922,4.02922 6.28828,6.96826 l 0.4601,11.92077 h -13.13892 l 0.30673,-11.81852 c 0.0763,-2.94046 2.73518,-7.07051 6.08381,-7.07051 z m 22.334,1.1247 c 2.50113,0 4.7334,4.23193 4.8489,7.06522 l -0.0511,9.87912 h -9.39108 l -0.0511,-9.52127 c -0.0152,-2.8356 2.14329,-7.42307 4.64443,-7.42307 z m -140.604011,0.55608 c 2.444277,0 4.091146,4.33134 4.172878,7.05994 l 0.306734,10.24022 -9.623814,-0.81795 0.357857,-9.57564 c 0,-2.72982 2.342076,-6.90657 4.786345,-6.90657 z m -17.300523,1.52427 c 1.865499,0 2.735809,2.95115 2.91308,5.25419 l 0.766835,9.96249 -6.746363,-0.61347 0.153368,-8.32657 c 0,-2.30985 1.047581,-6.27664 2.91308,-6.27664 z m -12.769066,1.47942 c 1.653635,0 2.375164,3.35127 2.438212,5.45018 l 0.204489,6.80766 -5.643258,-0.56234 0.511224,-6.44981 c 0.165918,-2.09329 0.835709,-5.24569 2.489333,-5.24569 z" /></svg>
