<?xml version="1.0" standalone="no"?>
<!DOCTYPE svg PUBLIC "-//W3C//DTD SVG 20010904//EN"
 "http://www.w3.org/TR/2001/REC-SVG-20010904/DTD/svg10.dtd">
<svg version="1.0" xmlns="http://www.w3.org/2000/svg"
 width="409.000000pt" height="278.000000pt" viewBox="0 0 409.000000 278.000000"
 preserveAspectRatio="xMidYMid meet">

<g transform="translate(0.000000,278.000000) scale(0.100000,-0.100000)"
fill="#FFFFFF" stroke="none">
<path d="M1208 2740 c-116 -35 -179 -144 -180 -310 -1 -207 96 -261 289 -164
l78 39 3 62 3 62 -55 -30 c-103 -56 -168 -25 -168 79 1 102 48 147 155 146
l67 0 0 57 0 56 -37 7 c-50 8 -122 6 -155 -4z"/>
<path d="M1726 2618 c-74 -170 -100 -237 -93 -244 3 -3 36 1 74 8 63 13 69 16
77 45 11 34 33 43 111 43 38 0 44 -3 55 -30 12 -30 14 -30 87 -30 88 0 89 -20
-6 185 l-69 150 -88 3 -89 3 -59 -133z m160 0 c9 -29 19 -59 22 -65 3 -9 -9
-13 -41 -13 l-45 0 22 65 c11 35 22 65 23 65 1 0 9 -24 19 -52z"/>
<path d="M2170 2582 l0 -171 33 -5 c17 -3 49 -7 70 -10 l37 -5 0 60 c0 45 3
59 15 59 22 0 49 -35 69 -89 16 -46 22 -52 59 -62 23 -5 57 -14 76 -19 19 -5
36 -8 38 -6 5 4 -22 77 -46 124 -12 23 -33 49 -47 58 l-25 17 36 13 c46 15 64
39 65 84 0 84 -51 109 -241 117 l-139 6 0 -171z m211 78 c41 -23 16 -70 -38
-70 -32 0 -33 1 -33 40 0 36 2 40 26 40 14 0 34 -5 45 -10z"/>
<path d="M590 2346 l0 -397 23 7 c12 3 43 17 70 30 l47 24 0 125 c0 131 9 156
40 117 10 -12 28 -59 40 -104 12 -46 23 -84 25 -86 5 -6 155 66 155 75 0 4
-12 44 -26 88 -29 87 -57 135 -80 135 -22 0 -17 18 11 36 68 44 98 197 52 264
-41 61 -74 73 -223 78 l-134 5 0 -397z m212 227 c30 -27 24 -88 -11 -124 -50
-50 -61 -41 -61 49 0 43 3 82 7 85 12 12 46 7 65 -10z"/>
<path d="M2632 2524 l3 -215 140 -55 c77 -30 146 -57 153 -61 9 -4 12 12 12
60 l0 66 -85 27 c-84 28 -85 29 -85 61 0 38 -2 37 70 18 81 -22 80 -23 80 45
0 66 6 62 -95 78 -49 7 -50 8 -53 45 -3 38 -3 38 30 33 18 -3 52 -7 76 -11
l42 -5 0 65 0 65 -145 0 -145 0 2 -216z"/>
<path d="M3000 2450 l0 -290 66 -30 c37 -16 69 -30 72 -30 3 0 2 81 -2 180 -3
99 -4 180 -2 180 7 0 62 -122 133 -290 35 -85 67 -158 71 -162 4 -4 33 -18 65
-32 l57 -26 0 395 0 395 -65 0 -65 0 0 -202 -1 -203 -32 75 c-19 41 -61 132
-96 203 l-62 127 -70 0 -69 0 0 -290z"/>
<path d="M75 2703 c3 -16 37 -221 76 -458 39 -236 73 -432 74 -434 2 -1 39 9
82 23 l79 26 18 113 c23 143 125 716 132 740 5 15 -3 17 -69 17 l-75 0 -6 -32
c-3 -18 -19 -148 -36 -288 -17 -140 -33 -266 -37 -280 -5 -24 -16 45 -69 458
l-18 142 -78 0 -77 0 4 -27z"/>
<path d="M3664 2693 c-11 -66 -145 -727 -150 -746 -4 -14 7 -23 50 -42 105
-46 103 -47 111 34 8 80 6 79 94 55 l59 -17 7 -77 c4 -42 10 -82 14 -89 9 -14
151 -53 151 -42 0 21 -106 698 -136 869 l-16 92 -89 0 -88 0 -7 -37z m133
-509 c-3 -3 -77 13 -82 18 -1 1 7 76 19 165 l21 163 22 -172 c13 -94 21 -173
20 -174z"/>
<path d="M1954 2165 c-72 -7 -160 -17 -195 -23 -35 -6 -95 -16 -134 -22 -137
-21 -316 -67 -480 -122 -118 -40 -151 -53 -270 -113 l-100 -51 -10 -48 c-11
-49 -24 -64 -86 -96 -30 -16 -43 -17 -73 -9 -33 9 -39 8 -56 -13 -46 -54 -109
-166 -115 -203 -7 -49 -29 -440 -56 -995 -11 -235 -12 -246 -35 -273 -32 -38
-30 -63 6 -86 32 -19 158 -32 490 -51 871 -50 2733 -29 2771 31 18 29 3 69
-30 81 -5 1 -14 122 -21 268 -15 378 -27 551 -38 581 -17 44 -75 85 -153 109
-152 47 -361 101 -474 123 -33 7 -66 16 -74 21 -7 5 -51 8 -97 7 l-85 -2 -15
38 c-8 21 -21 52 -29 68 -7 17 -16 41 -20 55 -4 14 -15 43 -25 65 -12 26 -20
80 -25 158 l-7 118 -39 16 c-33 13 -51 34 -112 127 -69 105 -119 186 -142 231
-13 25 -85 28 -271 10z m337 -512 c50 -47 58 -81 59 -235 l0 -118 -57 0 c-32
0 -102 -3 -156 -7 l-99 -6 4 154 c2 129 6 158 21 181 31 45 76 68 135 68 47 0
57 -4 93 -37z m-473 -46 c43 -44 52 -81 52 -214 l0 -112 -52 -5 c-29 -3 -87
-7 -128 -8 l-75 -3 0 135 c0 74 4 146 8 160 12 40 73 80 122 80 33 0 47 -6 73
-33z m-394 -47 c30 -37 41 -93 41 -225 l0 -99 -75 -12 c-41 -7 -87 -13 -102
-13 l-28 -1 0 138 c1 186 25 241 107 242 23 0 38 -8 57 -30z m-352 -87 c26
-29 38 -92 38 -200 l0 -103 -27 -6 c-16 -3 -48 -12 -72 -20 -25 -8 -46 -12
-49 -10 -7 7 -4 264 3 288 18 59 76 86 107 51z m-286 -130 c14 -22 19 -54 22
-140 l4 -111 -53 -16 c-29 -9 -54 -16 -56 -16 -7 0 -2 169 7 224 14 89 42 110
76 59z m-226 -148 c14 -17 26 -141 16 -178 -3 -15 -15 -27 -30 -31 -13 -3 -32
-9 -42 -13 -16 -6 -17 0 -11 68 7 94 26 169 42 169 7 0 18 -7 25 -15z m1683
-89 c18 -7 46 -28 62 -45 l30 -32 3 -175 3 -174 -153 0 -153 0 3 167 c4 193
10 212 81 250 51 26 79 29 124 9z m449 -23 c54 -58 59 -80 56 -250 l-3 -158
-127 -3 -128 -3 0 171 c0 185 5 209 56 249 41 32 113 29 146 -6z m-907 -7 c19
-8 44 -30 55 -48 18 -30 20 -47 18 -198 l-3 -165 -122 -3 -123 -3 0 161 c0
182 9 217 62 250 39 24 66 25 113 6z m-393 -47 c13 -5 34 -30 47 -53 19 -37
23 -64 28 -178 3 -76 2 -137 -3 -140 -5 -3 -55 -9 -111 -13 l-103 -7 0 147 c0
126 3 151 20 185 32 63 72 82 122 59z m1713 -13 c33 -33 45 -85 45 -195 l0
-93 -32 5 c-18 3 -59 9 -91 13 -41 4 -60 12 -67 25 -16 29 -12 176 5 209 32
62 97 79 140 36z m-2039 -69 c25 -22 28 -32 35 -123 4 -54 8 -120 9 -146 0
-46 -1 -47 -37 -57 -21 -6 -57 -11 -80 -11 l-43 0 0 123 c0 135 9 178 42 214
27 29 40 29 74 0z m2336 9 c36 -27 48 -80 48 -216 l0 -130 -30 0 c-16 0 -52 5
-81 11 l-52 11 5 123 c6 123 13 151 51 193 23 25 35 27 59 8z m-2619 -100 c10
-22 19 -77 23 -150 7 -110 6 -116 -12 -116 -10 0 -36 -3 -58 -7 l-39 -6 5 134
c3 77 10 144 17 157 17 33 45 27 64 -12z m-212 -113 c10 -64 11 -165 1 -181
-5 -7 -25 -15 -45 -19 l-37 -6 0 96 c0 74 5 106 20 143 19 44 22 46 37 31 9
-8 20 -37 24 -64z m2107 -263 c53 -32 72 -91 72 -220 0 -60 -4 -111 -9 -115
-5 -3 -67 -8 -137 -12 l-127 -6 8 138 c6 116 11 144 28 171 42 64 105 81 165
44z m-883 -6 c55 -36 65 -70 65 -213 l0 -131 -125 0 -125 0 0 124 c0 140 5
159 50 204 25 25 40 32 71 32 22 0 51 -7 64 -16z m478 -9 c59 -40 67 -66 67
-210 l0 -125 -151 0 -151 0 4 139 c3 122 5 142 23 161 58 65 142 79 208 35z
m775 -11 c42 -29 55 -72 60 -191 l5 -113 -75 0 c-42 0 -90 -3 -108 -6 l-32 -7
3 132 4 133 37 34 c41 37 71 42 106 18z m-1629 -20 c30 -38 43 -97 45 -199 l1
-90 -105 0 -105 0 -3 104 c-2 89 0 109 18 145 28 53 45 66 91 66 29 0 42 -6
58 -26z m2003 -16 c20 -29 23 -47 27 -145 l3 -113 -59 0 -59 0 -23 46 c-20 38
-22 55 -17 101 6 51 24 100 48 131 19 23 56 14 80 -20z m-2352 -3 c26 -28 38
-88 39 -197 l1 -68 -42 0 c-24 0 -60 3 -80 6 l-38 7 0 87 c0 162 54 235 120
165z m-286 -33 c8 -15 17 -72 21 -126 l8 -99 -33 6 c-18 4 -43 7 -56 7 -23 0
-24 3 -24 73 1 88 13 147 36 164 20 15 30 10 48 -25z m-229 -16 c9 -13 18 -58
22 -105 l6 -82 -44 3 -44 3 -3 50 c-3 51 23 155 39 155 5 0 15 -11 24 -24z"/>
</g>
</svg>
