<?xml version="1.0" encoding="utf-8"?>
<svg version="1.1" xmlns="http://www.w3.org/2000/svg" xmlns:xlink="http://www.w3.org/1999/xlink" x="0px" y="0px" viewBox="0 0 122.88 122.88" xml:space="preserve">
<g><path d="M103.75,110.38c-0.59,7.46-7.11,13.04-14.58,12.46c-7.46-0.59-13.04-7.11-12.46-14.58l0.92-11.47L26.09,45.24l-11.47,0.92 C7.15,46.75,0.63,41.17,0.04,33.71c-0.59-7.46,4.99-13.99,12.46-14.58l6.84-0.55L19.16,14C18.9,6.54,24.74,0.27,32.2,0.01 c7.46-0.26,13.73,5.57,13.99,13.04l0.55,14.47l48.61,48.61l14.47,0.55c7.46,0.26,13.3,6.53,13.04,13.99 c-0.26,7.46-6.53,13.3-13.99,13.04l-4.58-0.17L103.75,110.38L103.75,110.38z"/>
</g></svg>