<svg version="1.0" xmlns="http://www.w3.org/2000/svg"
 width="420.000000pt" height="212.000000pt" viewBox="0 0 420.000000 212.000000"
 preserveAspectRatio="xMidYMid meet">
<g transform="translate(0.000000,212.000000) scale(0.100000,-0.100000)"
 stroke="none">
<path d="M925 2110 c-82 -10 -185 -37 -264 -70 -79 -32 -185 -88 -209 -110 -9
-8 -35 -28 -57 -45 -86 -64 -191 -187 -257 -300 -164 -283 -180 -670 -38 -972
142 -304 424 -525 755 -590 96 -19 305 -21 390 -4 137 28 332 101 350 132 8
12 -355 619 -370 619 -7 0 -27 -8 -46 -17 -54 -28 -163 -29 -231 -3 -71 26
-150 96 -186 164 -24 45 -27 62 -27 146 0 83 3 101 27 145 107 203 364 248
522 91 48 -47 81 -95 148 -216 14 -25 58 -101 98 -170 40 -69 86 -150 103
-180 16 -30 38 -67 49 -82 10 -14 18 -29 18 -32 0 -3 14 -29 31 -58 31 -52 61
-103 83 -143 7 -11 27 -47 46 -80 57 -99 63 -108 125 -218 33 -59 63 -107 67
-107 6 0 21 25 91 150 13 25 75 133 137 240 62 107 124 215 138 240 13 25 44
78 68 117 24 40 44 75 44 79 0 3 8 18 18 32 11 15 33 52 49 82 17 30 81 143
143 250 62 107 119 208 127 223 l15 28 267 -3 268 -3 39 -27 c54 -38 74 -75
74 -140 0 -45 -5 -59 -30 -89 -52 -64 -74 -69 -288 -69 l-191 0 -34 -62 c-67
-125 -100 -184 -119 -210 -10 -14 -18 -28 -18 -31 0 -3 -43 -80 -96 -172 -52
-91 -98 -173 -101 -181 -4 -11 34 -14 238 -16 l243 -3 69 -120 c38 -66 81
-140 95 -165 13 -25 40 -71 60 -102 l35 -58 378 0 c317 0 379 2 379 14 0 8
-72 139 -159 292 l-159 278 31 23 c51 38 137 124 177 178 59 80 89 138 122
232 26 75 31 107 35 219 11 274 -58 458 -241 639 -113 113 -214 172 -371 217
-79 22 -87 23 -620 23 l-539 0 -129 -225 c-71 -124 -141 -245 -154 -270 -47
-85 -87 -150 -93 -150 -3 0 -38 60 -79 133 -41 72 -96 169 -123 215 -90 154
-143 247 -157 275 l-14 27 -346 -1 c-190 -1 -373 -5 -406 -9z"/>
</g>
</svg>
