<?xml version="1.0" standalone="no"?>
<svg version="1.0" xmlns="http://www.w3.org/2000/svg"
 width="752.000000pt" height="752.000000pt" viewBox="0 0 752.000000 752.000000"
 preserveAspectRatio="xMidYMid meet">
<g transform="translate(0.000000,752.000000) scale(0.100000,-0.100000)">
<path d="M3099 5877 c-104 -30 -199 -112 -247 -215 -24 -50 -27 -70 -27 -157
0 -89 3 -106 28 -156 40 -82 98 -143 170 -179 199 -98 424 -25 519 168 31 63
33 73 33 172 0 94 -3 111 -27 160 -62 127 -189 211 -327 217 -42 1 -96 -3
-122 -10z"/>
<path d="M3745 5092 c-108 -13 -820 -164 -854 -181 -22 -12 -51 -35 -64 -53
-13 -18 -86 -187 -162 -375 -80 -201 -143 -343 -150 -343 -7 0 -132 29 -277
65 -298 74 -316 75 -379 18 -86 -78 -69 -213 34 -262 59 -28 682 -183 739
-183 56 0 105 26 132 73 11 18 57 125 102 238 l83 206 1 -390 0 -391 -156
-419 c-112 -299 -157 -433 -158 -465 0 -36 35 -133 178 -493 200 -500 204
-507 289 -507 75 1 169 60 183 117 13 51 -8 128 -130 472 -69 194 -126 366
-126 381 0 33 311 744 320 733 4 -4 12 -48 19 -98 6 -49 25 -195 41 -323 32
-242 54 -336 98 -412 14 -25 74 -108 133 -185 60 -77 163 -214 231 -305 130
-175 168 -210 227 -210 46 0 119 36 145 73 27 36 27 118 1 167 -10 19 -114
162 -230 316 -117 155 -218 291 -224 302 -8 15 -10 306 -9 1024 l3 1003 200
-196 c216 -212 242 -229 320 -215 47 9 566 355 597 398 26 37 35 117 18 158
-17 42 -73 88 -115 96 -66 12 -103 -4 -289 -130 -99 -67 -190 -128 -202 -134
-19 -10 -38 6 -215 184 -107 108 -206 204 -220 214 -30 22 -92 37 -134 32z"/>
<path d="M5181 4241 c-68 -18 -66 -5 -69 -384 l-3 -342 -54 3 c-77 5 -153 -20
-207 -68 -54 -47 -78 -93 -78 -150 0 -173 255 -232 400 -92 76 74 80 99 80
452 0 347 -5 330 101 330 79 0 184 -22 235 -48 44 -23 82 -61 113 -112 l21
-35 0 40 c0 183 -88 332 -229 386 -62 24 -246 36 -310 20z"/>
</g>
</svg>
