<?xml version="1.0" encoding="UTF-8" standalone="no"?>
<svg
   height="512"
   viewBox="0 0 135.46667 135.46667"
   version="1.1"
   xmlns="http://www.w3.org/2000/svg"
   xmlns:svg="http://www.w3.org/2000/svg"
>
  <g>
    <path
       d="M 86.462156,10.325425 V 36.367841 H 112.50458 Z"
       />
    <g
       transform="matrix(1.2303504,0,0,1.2303504,-15.103268,-15.716991)">
      <path
         d="m 55.548289,89.94856 h -8.108888 v 3.279068 h 7.516998 v 3.409285 h -7.516998 v 7.528837 H 42.917364 V 86.539275 h 12.630925 z"
         />
      <path
         d="m 73.766652,98.767715 q 0,1.278485 -0.520863,2.284695 -0.509025,1.00621 -1.408698,1.66913 -1.041725,0.78129 -2.296531,1.11275 -1.242968,0.33146 -3.160691,0.33146 H 58.685304 V 86.539275 h 6.842244 q 2.130803,0 3.113339,0.142054 0.994375,0.142053 1.965074,0.627403 1.006212,0.509025 1.491562,1.373184 0.497187,0.852321 0.497187,1.953236 0,1.278481 -0.674754,2.261018 -0.674754,0.970699 -1.905885,1.515238 v 0.0947 q 1.728318,0.343296 2.734531,1.420535 1.01805,1.077239 1.01805,2.84107 z m -5.824194,-7.244729 q 0,-0.437998 -0.224918,-0.875997 -0.213081,-0.437998 -0.769457,-0.651078 -0.497187,-0.189405 -1.242968,-0.201243 -0.733943,-0.02367 -2.071614,-0.02367 h -0.42616 v 3.728904 h 0.710267 q 1.077239,0 1.834858,-0.03551 0.757619,-0.03551 1.195617,-0.236756 0.615565,-0.272269 0.80497,-0.69843 0.189405,-0.437998 0.189405,-1.006212 z m 1.112752,7.173702 q 0,-0.840483 -0.331458,-1.290319 -0.31962,-0.461674 -1.100915,-0.686592 -0.5327,-0.153891 -1.467886,-0.165729 -0.935186,-0.01184 -1.953236,-0.01184 h -0.994374 v 4.391822 h 0.331458 q 1.917722,0 2.746368,-0.0118 0.828645,-0.0118 1.527075,-0.30778 0.710268,-0.29594 0.970699,-0.781295 0.272269,-0.497188 0.272269,-1.136429 z"
         />
      <path
         d="m 93.133282,104.16575 h -5.25598 l -3.799931,-5.80052 -3.870959,5.80052 h -5.019224 l 6.250355,-8.878346 -6.120139,-8.748129 h 5.244142 l 3.669716,5.492736 3.776256,-5.492736 h 5.031062 l -6.155653,8.570562 z"
         />
    </g>
    <path
       d="M 23.960357,8.6977745 22.333506,10.324624 V 124.91301 l 1.626851,1.62686 h 88.544383 l 1.62684,-1.62686 V 36.368642 l -0.4758,-1.15105 -26.041612,-26.0440175 -1.15105,-0.4758 z m 1.62685,3.2561025 h 60.20066 L 110.87789,37.04149 v 86.24227 H 25.587207 Z"
       />
  </g>
</svg>
