<?xml version="1.0" standalone="no"?>
<svg version="1.0" xmlns="http://www.w3.org/2000/svg"
 width="512.000000pt" height="512.000000pt" viewBox="0 0 512.000000 512.000000"
 preserveAspectRatio="xMidYMid meet">
<g transform="translate(0.000000,512.000000) scale(0.100000,-0.100000)">
<path d="M2130 4361 c-5 -11 -10 -35 -10 -55 0 -19 -4 -38 -10 -41 -12 -8 -13
-62 -1 -69 4 -3 11 -37 15 -75 3 -39 13 -92 22 -118 33 -99 98 -218 141 -260
13 -12 23 -27 23 -33 0 -6 8 -13 18 -17 9 -4 31 -19 47 -35 33 -31 101 -78
114 -78 5 0 30 -9 55 -21 63 -28 232 -37 358 -19 51 7 98 16 103 20 6 5 28 13
50 19 22 6 46 15 54 20 16 10 6 31 -15 31 -31 0 -214 84 -334 153 -86 50 -104
61 -110 68 -3 3 -21 15 -40 26 -20 12 -46 33 -59 47 -14 14 -29 26 -35 26 -13
0 -156 141 -156 153 0 5 -15 27 -34 50 -18 23 -48 71 -66 107 -53 107 -105
147 -130 101z"/>
<path d="M686 4117 c-15 -11 -16 -18 -8 -34 13 -24 99 -98 166 -143 27 -18
113 -94 191 -169 78 -75 162 -150 186 -168 54 -39 156 -87 229 -108 89 -26
332 -12 415 23 95 41 136 64 133 76 -4 15 -169 170 -207 194 -14 8 -30 20 -36
26 -11 12 -83 62 -119 83 -29 17 -266 134 -291 144 -11 5 -40 14 -65 20 -25 7
-49 16 -55 20 -5 4 -46 12 -90 19 -44 6 -94 16 -111 21 -49 15 -317 11 -338
-4z"/>
<path d="M4095 3858 c-41 -15 -82 -43 -135 -93 -222 -209 -635 -505 -870 -625
-150 -76 -244 -107 -366 -121 -160 -17 -201 -45 -148 -100 50 -52 215 -118
343 -136 l53 -8 -178 -84 c-316 -149 -668 -328 -688 -349 -45 -51 18 -69 208
-58 67 4 186 15 266 25 80 11 147 17 148 16 12 -11 -66 -123 -140 -201 -221
-231 -461 -320 -652 -240 -19 8 -76 44 -126 80 -93 67 -119 77 -138 53 -36
-43 169 -294 355 -435 40 -30 107 -71 149 -93 61 -30 73 -40 58 -45 -93 -33
-262 -107 -369 -163 -234 -121 -365 -218 -512 -380 -108 -118 -130 -153 -107
-171 15 -13 29 -13 254 10 57 5 135 5 198 0 128 -11 109 -8 502 -85 413 -81
565 -99 770 -92 282 11 498 79 725 228 99 66 347 312 427 424 266 376 448 800
517 1205 77 450 24 899 -141 1187 -51 90 -155 201 -217 233 -51 26 -142 35
-186 18z"/>
<path d="M835 3313 c-77 -10 -192 -63 -274 -128 -21 -16 -48 -37 -61 -45 -33
-23 -54 -68 -39 -86 6 -8 17 -14 23 -14 6 0 23 -6 38 -14 15 -8 42 -17 60 -21
18 -4 38 -10 43 -13 12 -7 13 -8 80 -22 28 -6 57 -15 66 -19 55 -30 479 -39
579 -12 19 5 62 16 95 25 65 18 73 20 158 59 86 40 76 83 -25 107 -29 7 -57
16 -63 20 -5 4 -28 11 -50 15 -57 10 -151 44 -214 76 -29 15 -67 31 -85 35
-17 3 -35 10 -41 14 -28 23 -193 36 -290 23z"/>
</g>
</svg>
