<svg id="svg" version="1.1" xmlns="http://www.w3.org/2000/svg" xmlns:xlink="http://www.w3.org/1999/xlink" width="400" height="426.0355029585799" viewBox="0, 0, 400,426.0355029585799"><g id="svgg"><path id="path0" d="M170.414 43.955 C 154.578 48.099,120.818 64.349,115.242 70.510 C 111.358 74.801,111.956 75.959,129.364 97.851 C 149.877 123.647,148.256 122.755,160.066 114.741 C 187.783 95.931,235.405 97.006,262.579 117.055 L 270.468 122.875 289.553 98.988 L 308.638 75.102 301.656 69.424 C 271.352 44.781,211.580 33.182,170.414 43.955 M306.832 117.050 L 284.269 137.429 290.116 146.045 C 293.331 150.784,297.610 160.602,299.623 167.863 C 301.636 175.124,303.630 182.191,304.055 183.568 C 304.592 185.310,313.356 185.172,332.887 183.114 C 348.320 181.488,361.746 180.095,362.722 180.019 C 371.227 179.360,347.060 112.657,334.050 100.884 C 329.522 96.786,328.783 97.225,306.832 117.050 M78.030 111.362 C 65.640 130.670,50.550 174.415,54.809 178.675 C 56.211 180.076,95.910 184.571,107.101 184.596 C 114.348 184.612,115.976 183.763,115.976 179.970 C 115.976 172.976,124.971 150.352,130.594 143.204 C 136.407 135.814,137.978 137.783,108.246 115.181 C 83.536 96.396,87.326 96.875,78.030 111.362 M82.225 209.382 C 68.218 210.974,56.077 212.956,55.247 213.787 C 50.284 218.750,73.901 279.718,84.494 289.289 C 88.489 292.899,89.657 292.369,103.032 280.890 C 110.883 274.152,121.334 265.323,126.256 261.270 L 135.207 253.900 129.130 244.946 C 123.468 236.602,115.976 216.151,115.976 209.038 C 115.976 205.491,116.510 205.486,82.225 209.382 M302.959 210.562 C 302.959 217.380,294.021 240.107,288.661 246.922 C 286.110 250.165,284.024 253.841,284.024 255.091 C 284.024 257.958,325.626 293.491,328.982 293.491 C 338.370 293.491,370.221 220.320,363.680 213.779 C 362.608 212.706,315.230 206.342,305.917 206.020 C 304.290 205.963,302.959 208.007,302.959 210.562 M129.573 292.909 L 111.218 315.976 117.739 321.381 C 157.744 354.536,227.391 359.859,280.588 333.826 C 311.821 318.542,311.711 319.024,290.038 292.352 C 269.436 266.999,270.777 267.711,258.869 275.792 C 232.244 293.860,186.548 293.763,159.756 275.582 C 148.445 267.906,150.331 266.823,129.573 292.909 "></path></g></svg>