<?xml version="1.0" standalone="no"?>
<svg version="1.0" xmlns="http://www.w3.org/2000/svg"
 width="512.000000pt" height="512.000000pt" viewBox="0 0 512.000000 512.000000"
 preserveAspectRatio="xMidYMid meet">
<g transform="translate(0.000000,512.000000) scale(0.100000,-0.100000)">
<path d="M1191 5098 c-54 -28 -81 -75 -81 -138 0 -69 33 -111 125 -154 l75
-36 -1 -52 c0 -29 -10 -257 -23 -505 -21 -427 -24 -454 -43 -475 -61 -67 -68
-149 -19 -213 l27 -35 -26 -527 c-13 -291 -28 -572 -31 -625 l-7 -97 -51 -15
c-55 -16 -115 -67 -142 -119 -43 -82 -22 -196 49 -264 57 -54 793 -547 842
-563 24 -8 63 -11 107 -7 l68 6 0 -411 c0 -347 3 -422 16 -477 47 -188 184
-327 371 -376 245 -64 501 85 591 344 13 39 16 118 19 514 2 257 7 467 11 467
4 0 27 -6 52 -14 l45 -13 153 -354 c161 -372 177 -400 256 -441 84 -43 211
-17 272 55 72 85 73 164 5 326 l-48 116 68 1235 c37 679 68 1250 69 1267 0 27
6 35 33 47 42 17 74 57 88 109 18 67 -18 134 -99 183 -2 1 7 194 19 428 l23
426 52 30 c127 71 121 235 -11 286 -38 14 -52 15 -84 6 -21 -7 -307 -140 -637
-297 -329 -157 -603 -285 -609 -285 -6 0 -323 149 -705 331 -436 208 -710 333
-735 336 -29 3 -52 -2 -84 -19z m686 -598 c260 -123 470 -226 468 -228 -7 -7
-1028 -492 -1035 -492 -5 0 -6 26 -4 58 4 55 44 867 44 897 0 14 4 14 28 2 15
-7 239 -114 499 -237z m2083 138 c0 -63 -39 -761 -43 -763 -3 -2 -825 390
-832 396 -4 5 851 416 868 418 4 1 7 -23 7 -51z m-777 -758 c378 -181 447
-217 447 -234 0 -27 -327 -1876 -333 -1882 -8 -8 -498 154 -518 172 -20 18
-19 18 38 47 173 86 282 237 305 425 10 77 9 102 -5 169 -24 110 -70 195 -147
273 -110 109 -230 160 -380 160 -157 0 -275 -48 -384 -156 -109 -110 -160
-235 -159 -390 2 -201 109 -374 291 -472 l73 -39 -34 -22 c-33 -20 -110 -97
-118 -118 -2 -5 -59 -23 -126 -40 l-122 -30 -38 25 c-21 14 -39 26 -40 26 -5
4 -254 1782 -251 1799 2 15 123 76 513 263 281 133 517 241 525 240 8 -2 216
-99 463 -216z m598 -285 c51 -25 99 -45 106 -45 7 0 13 -11 13 -27 0 -53 -130
-2417 -133 -2420 -2 -2 -48 99 -102 225 -54 125 -108 248 -121 273 -30 59 -84
105 -151 126 -29 9 -53 21 -53 26 0 8 314 1801 326 1860 3 15 9 27 14 27 5 0
50 -20 101 -45z m-2016 -900 c67 -473 121 -861 120 -863 -2 -2 -134 85 -294
193 -160 107 -305 198 -322 202 -17 3 -33 11 -35 18 -5 11 38 952 52 1145 l6
85 46 -3 c40 -2 67 7 172 56 103 49 126 57 129 43 2 -9 59 -403 126 -876z"/>
</g>
</svg>
