<svg viewBox="0 0 241.78 241.78">
  <g>
    <path d="m122.35,107.6l24.93-52.58c3.22-6.72,8.77-12.15,16.15-15.55,3.88-1.48,7.79-2.22,11.61-2.28.16,0,.32,0,.48,0,8.43-.02,16.35,3.25,22.3,9.2,3.01,3.02,5.34,6.54,6.9,10.38.31.76.59,1.54.84,2.33,2.13,6.75,1.98,14.3-.85,21.71-3.37,7.34-8.82,12.91-15.53,16.12l-52.58,24.93c-2.68,1.37-5.72,1.51-8.42.52-1.42-.51-2.75-1.34-3.87-2.46,0,0,0,0-.01-.01-3.26-3.26-4.04-8.2-1.95-12.3Z" fill="black" />
    <path d="m105.55,153.06l-24.93,52.58c-3.22,6.72-8.77,12.15-16.15,15.55-3.88,1.48-7.79,2.22-11.61,2.28-.16,0-.32,0-.48,0-8.43.02-16.35-3.25-22.3-9.2-3.01-3.02-5.34-6.54-6.9-10.38-.31-.76-.59-1.54-.84-2.33-2.13-6.75-1.98-14.3.85-21.71,3.37-7.34,8.82-12.91,15.53-16.12l52.58-24.93c2.68-1.37,5.72-1.51,8.42-.52,1.42.51,2.75,1.34,3.87,2.46,0,0,0,0,.01.01,3.26,3.26,4.04,8.2,1.95,12.3Z" fill="black" />
    <path d="m99.93,126.02s0,.03-.01.04c-.74,2.34-2.87,3.94-5.32,3.98l-35.95,1.65c-2.09.09-4.18-.18-6.2-.8-4.74-1.45-8.63-4.65-10.95-9.03-.05-.1-.11-.2-.16-.31-2.19-4.3-2.62-9.19-1.2-13.82.83-2.72,2.24-5.15,4.12-7.18,1.39-1.51,3.04-2.78,4.91-3.77,2.72-1.45,5.69-2.18,8.68-2.18,1.82,0,3.66.27,5.44.82,2.02.62,3.9,1.56,5.59,2.8l28.88,21.48c1.21.85,2,2.09,2.3,3.47.2.92.16,1.89-.12,2.84Z" fill="black"/>
    <path d="m122.5,202.87c1.82.97,3.75,1.62,5.73,1.94,2.77.45,5.63.27,8.39-.58,1.8-.55,3.46-1.35,4.94-2.35,2.43-1.64,4.4-3.81,5.8-6.32.45-.79.83-1.61,1.16-2.45,1.43-3.73,1.67-7.93.42-12.03-.62-2.03-1.56-3.91-2.8-5.59l-21.48-28.88c-1.4-2-3.9-2.88-6.25-2.19-.02,0-.05.01-.07.02-.93.28-1.74.79-2.38,1.44-1,1.01-1.61,2.39-1.63,3.89l-.93,20.33-.72,15.62c-.09,2.09.18,4.18.8,6.2,1.45,4.74,4.65,8.63,9.03,10.95Z" fill="black" />
    <path d="m187.94,152.92c-.88,2.86-2.38,5.35-4.31,7.37-4.69,4.9-11.92,7.05-18.84,4.94-2.02-.62-3.9-1.56-5.58-2.8l-16.91-12.57-11.98-8.9c-1.11-.77-1.87-1.9-2.22-3.14-.27-.98-.28-2.04.01-3.07,0-.04.02-.07.03-.11.72-2.36,2.87-3.98,5.33-4.02l8.44-.39,27.5-1.26c2.09-.09,4.18.18,6.21.8,4.74,1.45,8.62,4.65,10.95,9.03.05.1.1.19.15.29,2.19,4.3,2.62,9.2,1.21,13.83Z" fill="black" />
    <path d="m81.93,85.17l21.48,28.88c1.42,2.02,3.95,2.89,6.31,2.17.05-.01.09-.03.13-.04,1.02-.33,1.89-.94,2.55-1.72.83-.97,1.32-2.22,1.34-3.57l1.65-35.95c.09-2.09-.18-4.18-.8-6.2-1.45-4.74-4.65-8.63-9.03-10.95-1.83-.97-3.78-1.62-5.77-1.94-2.76-.45-5.61-.26-8.36.58-4.79,1.46-8.56,4.71-10.81,8.79-2.34,4.24-3.02,9.37-1.5,14.36.62,2.03,1.56,3.91,2.8,5.59Z" fill="black"/>
  </g>
</svg>