<?xml version="1.0" standalone="no"?>
<svg version="1.0" xmlns="http://www.w3.org/2000/svg"
 width="512.000000pt" height="512.000000pt" viewBox="0 0 512.000000 512.000000"
 preserveAspectRatio="xMidYMid meet">
<g transform="translate(0.000000,512.000000) scale(0.100000,-0.100000)">
<path d="M2380 4790 c-19 -5 -48 -11 -65 -14 -71 -15 -186 -60 -267 -104 -306
-166 -524 -469 -593 -824 -20 -102 -30 -498 -16 -623 15 -132 66 -223 147
-261 55 -26 112 -83 138 -137 24 -49 26 -63 28 -224 4 -220 -6 -208 168 -208
162 0 161 -1 167 127 3 51 9 97 13 102 10 10 271 9 281 -1 4 -5 9 -49 11 -100
4 -128 4 -128 168 -128 164 0 164 0 168 128 2 51 7 96 12 100 9 10 262 13 277
4 6 -4 13 -50 15 -103 7 -131 5 -129 169 -128 108 1 133 4 147 18 14 14 17 43
20 188 4 228 25 278 143 348 107 64 151 124 168 232 16 98 6 603 -14 706 -87
450 -449 812 -898 897 -84 16 -324 19 -387 5z m-154 -989 c109 -49 158 -133
159 -276 0 -85 -2 -94 -36 -155 -75 -137 -235 -191 -409 -139 -63 19 -132 89
-151 154 -8 29 -14 90 -14 145 1 77 5 105 23 145 37 80 88 122 179 145 62 15
193 5 249 -19z m970 0 c106 -47 148 -123 148 -271 1 -55 -5 -116 -13 -145 -19
-65 -88 -135 -151 -154 -174 -52 -334 2 -409 139 -34 61 -36 70 -36 155 1 123
34 197 116 256 73 52 249 62 345 20z m-590 -627 c50 -24 78 -91 98 -241 l6
-43 -150 0 -150 0 6 43 c20 147 48 216 97 241 40 20 51 20 93 0z"/>
<path d="M2444 2238 c-27 -6 -53 -22 -80 -49 -38 -39 -39 -42 -39 -109 0 -68
1 -71 41 -111 38 -38 46 -41 122 -50 53 -7 105 -7 153 0 66 9 76 14 113 51 40
39 41 42 41 110 0 65 -2 71 -35 105 -19 21 -46 41 -60 47 -33 13 -204 17 -256
6z"/>
<path d="M1244 1918 c-27 -6 -53 -22 -80 -49 -38 -39 -39 -42 -39 -109 0 -67
1 -70 39 -109 52 -54 84 -59 351 -60 444 -3 639 -44 814 -171 39 -29 43 -34
28 -45 -26 -19 -222 -63 -329 -75 -54 -5 -167 -10 -252 -10 -198 0 -241 -9
-292 -61 -38 -39 -39 -42 -39 -109 0 -68 1 -71 41 -110 53 -53 87 -58 354 -49
228 8 448 38 540 73 12 5 15 -2 14 -31 0 -21 -1 -88 -2 -149 l-2 -111 -87 -26
c-158 -48 -289 -65 -523 -68 -209 -2 -247 -9 -296 -60 -38 -39 -39 -42 -39
-109 0 -67 1 -70 39 -109 27 -27 53 -43 81 -49 58 -12 480 4 595 23 114 19
251 55 339 89 60 24 65 25 100 10 55 -23 245 -71 346 -88 203 -34 582 -50 635
-28 14 5 41 26 60 47 33 34 35 40 35 105 0 67 -1 70 -39 109 -49 50 -87 59
-259 61 -201 1 -436 33 -584 78 l-58 18 -6 134 c-3 74 -4 140 -2 147 3 8 12 9
27 3 40 -15 230 -49 331 -60 136 -13 464 -15 495 -2 14 5 41 26 60 47 33 34
35 40 35 105 0 67 -1 70 -39 109 -51 52 -94 61 -292 61 -85 0 -198 5 -252 10
-107 12 -303 56 -329 75 -15 11 -11 16 28 45 175 127 363 167 819 171 124 1
243 6 266 11 27 6 54 22 80 49 38 39 39 42 39 109 0 67 -1 70 -39 109 -26 27
-52 43 -80 49 -53 11 -617 -3 -721 -18 -205 -29 -393 -98 -531 -194 l-64 -45
-64 45 c-141 98 -333 168 -531 193 -49 7 -171 14 -270 17 -99 2 -232 6 -295 8
-63 1 -133 -1 -156 -6z"/>
<path d="M735 1431 c-11 -5 -36 -25 -55 -46 -33 -34 -35 -40 -35 -105 0 -67 1
-70 39 -109 22 -22 52 -43 67 -46 16 -4 32 -11 35 -17 4 -6 7 -183 7 -395 0
-264 3 -385 10 -390 21 -13 296 -16 311 -4 11 9 14 83 14 396 0 211 3 388 6
394 3 5 19 12 35 16 15 3 45 24 67 46 38 39 39 42 39 109 0 69 -1 70 -43 112
-42 42 -44 43 -110 43 -63 0 -72 -3 -106 -32 -46 -41 -71 -41 -113 -1 -28 27
-41 32 -90 35 -32 1 -67 -1 -78 -6z"/>
<path d="M3935 1431 c-11 -5 -36 -25 -55 -46 -33 -34 -35 -40 -35 -105 0 -67
1 -70 39 -109 22 -22 52 -43 67 -46 16 -4 31 -11 35 -16 3 -6 6 -183 6 -394 0
-291 3 -387 12 -395 14 -11 294 -9 312 3 8 5 11 117 11 390 0 212 3 389 7 395
3 6 19 13 35 17 15 3 45 24 67 46 38 39 39 42 39 109 0 69 -1 70 -43 112 -42
42 -44 43 -110 43 -63 0 -72 -3 -106 -32 -46 -41 -66 -41 -112 -1 -30 26 -46
32 -93 35 -31 1 -65 -1 -76 -6z"/>
</g>
</svg>
