<?xml version="1.0" standalone="no"?>
<!DOCTYPE svg PUBLIC "-//W3C//DTD SVG 20010904//EN"
 "http://www.w3.org/TR/2001/REC-SVG-20010904/DTD/svg10.dtd">
<svg version="1.0" xmlns="http://www.w3.org/2000/svg"
 width="512.000000pt" height="512.000000pt" viewBox="0 0 512.000000 512.000000"
 preserveAspectRatio="xMidYMid meet">

<g transform="translate(0.000000,512.000000) scale(0.100000,-0.100000)">
<path d="M2152 5093 c-6 -16 -111 -314 -232 -663 -264 -759 -376 -1079 -385
-1102 -6 -16 -23 -18 -144 -18 -209 0 -186 25 -303 -325 -54 -159 -98 -292
-98 -295 -1 -3 -45 124 -99 283 -55 158 -104 294 -111 302 -23 28 -84 37 -222
34 -128 -4 -138 -6 -162 -28 -51 -48 -52 -43 168 -663 113 -318 210 -586 215
-597 19 -35 61 -43 221 -39 148 3 152 4 173 28 13 15 91 220 182 479 l160 453
5 -444 c5 -406 7 -446 23 -471 26 -40 54 -47 197 -47 210 0 210 0 210 275 0
121 4 195 10 195 25 0 83 -71 204 -251 76 -113 141 -199 156 -206 16 -8 69
-13 143 -13 64 0 117 -1 117 -3 0 -2 -155 -443 -345 -981 -190 -538 -345 -982
-345 -987 0 -5 659 -9 1615 -9 l1615 0 0 2560 0 2560 -1479 0 -1479 0 -10 -27z
m1199 -1877 c160 -34 261 -122 320 -276 14 -37 16 -50 6 -50 -6 -1 -56 -9
-110 -19 l-98 -18 -21 49 c-69 161 -301 188 -421 48 -60 -70 -72 -121 -72
-300 0 -180 15 -243 73 -311 85 -99 237 -118 339 -42 37 27 80 95 97 152 l11
38 108 -34 c124 -39 120 -28 61 -149 -80 -167 -255 -258 -461 -240 -225 20
-386 159 -443 382 -24 94 -27 266 -5 369 62 293 323 463 616 401z m-2507 -423
c77 -227 143 -413 146 -413 3 0 66 187 140 415 l135 415 118 0 c64 0 117 -3
116 -7 0 -5 -89 -258 -197 -563 l-197 -555 -121 -3 -122 -3 -15 43 c-15 44
-348 981 -373 1051 l-13 38 122 -3 121 -3 140 -412z m1406 407 c200 -24 300
-141 288 -335 -10 -147 -101 -245 -261 -280 l-28 -6 53 -40 c30 -22 71 -61 90
-87 35 -46 203 -304 227 -349 l12 -23 -133 0 -133 0 -90 137 c-206 312 -228
332 -357 333 l-68 0 0 -235 0 -235 -110 0 -110 0 0 565 0 565 268 0 c147 0
306 -5 352 -10z m2400 -85 l0 -95 -270 0 -270 0 0 -135 0 -135 235 0 235 0 0
-95 0 -95 -235 0 -235 0 0 -240 0 -240 -110 0 -110 0 0 565 0 565 380 0 380 0
0 -95z"/>
<path d="M1850 2879 l0 -141 183 4 c151 2 188 6 214 21 90 49 82 203 -12 243
-25 10 -80 14 -210 14 l-175 0 0 -141z m344 35 c9 -3 16 -17 16 -30 0 -35 -33
-44 -156 -44 l-104 0 0 40 0 40 114 0 c63 0 121 -3 130 -6z"/>
</g>
</svg>
