<?xml version="1.0" standalone="no"?>
<!DOCTYPE svg PUBLIC "-//W3C//DTD SVG 20010904//EN"
 "http://www.w3.org/TR/2001/REC-SVG-20010904/DTD/svg10.dtd">
<svg version="1.0" 
  xmlns="http://www.w3.org/2000/svg" width="1199.000000pt" height="511.000000pt" viewBox="0 0 1199.000000 511.000000" preserveAspectRatio="xMidYMid meet">
  <metadata>
Created by potrace 1.16, written by Peter Selinger 2001-2019
  </metadata>
  <g transform="translate(0.000000,511.000000) scale(0.100000,-0.100000)" fill="currentColor" stroke="none">
    <path d="M531 5044 c-89 -19 -194 -71 -267 -132 -72 -59 -151 -172 -185 -263
l-24 -64 -3 -1380 c-2 -1379 -2 -1380 19 -1450 32 -108 77 -183 159 -266 60
-61 92 -85 160 -117 47 -22 109 -45 138 -51 38 -8 1398 -11 4740 -12 l4687 0
85 -112 c388 -508 762 -982 812 -1029 33 -32 85 -69 115 -84 193 -91 387 19
423 237 6 37 10 256 10 525 0 499 -3 474 51 474 41 0 177 62 242 111 105 80
181 189 223 324 18 57 19 118 19 1425 l0 1365 -23 74 c-34 109 -76 177 -162
262 -88 88 -177 136 -297 163 -65 15 -560 16 -5465 15 -4572 0 -5403 -3 -5457
-15z m10861 -235 c29 -6 73 -21 98 -32 66 -31 153 -124 181 -194 l24 -58 3
-1300 c2 -907 -1 -1320 -8 -1366 -20 -117 -92 -214 -205 -272 -57 -30 -67 -32
-197 -35 l-138 -4 7 -561 c3 -309 3 -583 -1 -609 -4 -26 -16 -57 -26 -70 l-19
-23 -45 24 c-25 13 -63 44 -83 69 -42 51 -517 663 -753 969 l-155 202 -4755 3
-4755 3 -66 32 c-79 39 -140 102 -177 181 l-27 57 0 1360 0 1360 28 57 c51
104 156 185 267 207 71 14 10737 14 10802 0z"/>
    <path d="M4872 4369 c-110 -21 -212 -105 -265 -216 l-32 -68 -3 -879 c-2 -786
-1 -885 14 -935 33 -113 107 -200 212 -249 l57 -27 2995 0 2995 0 57 27 c77
36 152 112 191 196 l32 67 0 895 0 895 -23 57 c-27 68 -105 157 -169 195 -96
56 78 53 -3088 52 -1612 -1 -2949 -5 -2973 -10z m4031 -202 c29 -17 54 -41 63
-60 26 -57 544 -1761 544 -1791 0 -39 -62 -98 -126 -120 -88 -30 -190 -15
-209 31 -4 10 -30 99 -59 198 l-52 180 -316 3 -317 2 -10 -37 c-61 -222 -102
-348 -120 -366 -16 -17 -36 -22 -88 -25 -61 -3 -75 0 -133 30 -48 24 -70 43
-85 69 l-19 37 258 843 c143 464 267 868 276 897 36 108 99 143 250 139 84 -2
101 -6 143 -30z m-3173 -6 c150 -38 261 -106 337 -206 58 -77 84 -152 90 -260
9 -149 -23 -194 -145 -202 -129 -10 -196 27 -207 113 -15 125 -49 188 -122
231 -40 23 -61 28 -139 31 -174 8 -262 -50 -299 -197 -14 -51 -15 -130 -13
-523 4 -521 4 -522 79 -597 52 -52 111 -71 218 -71 91 0 166 25 203 66 30 34
57 108 68 183 6 40 15 82 21 93 18 33 86 58 164 58 131 0 175 -46 175 -180 0
-202 -106 -369 -292 -459 -124 -60 -197 -75 -368 -74 -125 0 -156 3 -227 25
-201 61 -332 200 -380 406 -16 69 -18 130 -18 582 0 451 2 512 18 574 63 248
234 393 507 430 71 9 256 -3 330 -23z m997 2 c21 -11 44 -31 50 -44 9 -18 13
-120 13 -391 l0 -368 310 0 310 0 0 379 0 379 31 26 c38 32 68 41 144 41 76 0
106 -9 144 -41 l31 -26 0 -932 0 -932 -27 -26 c-36 -33 -83 -48 -148 -48 -65
0 -112 15 -147 48 l-28 26 0 413 0 413 -310 0 -310 0 0 -408 c0 -457 3 -438
-74 -473 -90 -41 -242 -13 -273 51 -10 20 -12 227 -10 948 l2 924 30 23 c16
13 45 29 65 34 52 15 153 7 197 -16z m4038 5 c37 -29 55 -76 55 -143 0 -62
-27 -127 -59 -145 -12 -6 -106 -10 -235 -10 l-216 0 0 -803 c0 -899 6 -832
-74 -868 -55 -25 -157 -25 -213 0 -77 36 -73 -17 -73 876 l0 795 -218 0 c-242
0 -251 2 -278 66 -18 44 -18 147 1 184 8 15 27 38 41 49 26 21 33 21 634 21
l607 0 28 -22z"/>
    <path d="M8631 3333 c-62 -219 -115 -406 -117 -415 -5 -17 11 -18 231 -18
l237 0 -6 23 c-16 63 -226 801 -229 804 -2 2 -54 -176 -116 -394z"/>
    <path d="M1025 4191 c-90 -24 -165 -89 -165 -143 0 -17 66 -245 146 -507 80
-262 201 -656 269 -877 67 -220 130 -412 140 -427 9 -15 42 -39 73 -54 48 -24
70 -28 137 -28 104 0 160 18 205 63 33 34 44 63 139 377 57 187 179 589 273
894 187 616 181 580 111 641 -92 81 -250 91 -296 18 -8 -12 -41 -115 -72 -228
-31 -113 -90 -322 -130 -465 -40 -143 -99 -352 -130 -465 -31 -113 -65 -232
-75 -265 l-18 -60 -20 70 c-21 72 -68 237 -268 950 -124 444 -135 474 -166
494 -25 16 -113 23 -153 12z"/>
    <path d="M2675 4186 c-17 -7 -40 -26 -50 -42 -19 -28 -20 -55 -23 -944 -2
-1023 -7 -961 68 -1005 47 -27 188 -29 240 -2 70 34 70 32 70 441 l0 366 108
0 107 0 199 -386 c109 -212 210 -399 223 -415 35 -42 91 -54 156 -35 94 27
187 132 173 195 -2 14 -86 176 -185 360 l-180 335 70 33 c180 88 279 274 279
525 -1 307 -133 488 -411 559 -77 20 -115 22 -449 26 -295 2 -371 1 -395 -11z
m665 -326 c95 -16 148 -51 185 -125 27 -54 30 -69 30 -156 0 -86 -3 -101 -30
-154 -25 -47 -40 -63 -85 -89 l-55 -31 -202 -3 -203 -3 0 285 0 286 148 0 c81
0 176 -5 212 -10z"/>
  </g>
</svg>
