<svg width="100mm" height="100mm" viewBox="0 0 100 100" xmlns="http://www.w3.org/2000/svg"><g fill="none" stroke="#000" stroke-linejoin="bevel"><path d="M49.268 46.004l1.878-.117s2.57.492 3.834.821c1.717.447 3.394 1.034 5.087 1.565 1.385.435 2.806.775 4.147 1.33 1.477.612 2.887 1.382 4.265 2.192 1.135.667 2.19 1.462 3.286 2.19 1.395.928 2.8 1.841 4.187 2.779.42.283.834.575 1.252.86.963.656 1.923 1.315 2.895 1.957 1.024.676 2.033 1.376 3.091 1.995.942.55 1.952.98 2.896 1.526 1.095.635 3.208 2.035 3.208 2.035l.548 1.095s-.735.834-1.213 1.096c-1.044.57-2.281.684-3.443.939-1.008.22-2.027.4-3.052.508-1.117.119-2.242.145-3.365.157-2.061.022-4.126-.002-6.182-.157a27.377 27.377 0 01-3.13-.39c-4.197-.809-12.403-3.248-12.403-3.248l2.159 3.71 2.296 4.76 1.992 4.135S65 81.174 65.645 82.93c.47 1.278 1.26 3.887 1.26 3.887l1.064 3.652.263 2.684-.069 3.153-.028 1.121-.58 1.01-.65.041s-.983-.316-1.44-.553c-.448-.233-.851-.544-1.258-.844-.668-.492-1.3-1.032-1.937-1.563-2.036-1.694-3.978-3.5-6.031-5.174-2.038-1.66-4.31-3.041-6.239-4.827-1.397-1.293-2.617-2.768-3.832-4.233-.716-.865-2.033-2.684-2.033-2.684M46.783 43.754l.705-1.232.332-1.741-.215-.783-.078-1.33.098-2.387-.372-.958-.49.802v-.802l-.058-1.409-.195-1.135-.646 2.328-.43 3.052.117-3.15-.254-.489-.333-.097L44.808 30l-.274-.84-.216-.099-.39 1.428.038-1.428-.684-.176-.333.45-.45-1.506-.548-.802-.45.9-.215-1.018-.274-1.78-.567-2.015-.372 1.898-.274 2.19.372 2.524.567 2.505.802 2.406-.313 1.389-1.154-3.893-.567-2.21-.548-1.527-.548-.508-.45.43-.078.998-2.074-3.952-2.034-4.108-.587-.45.117 1.682.333 2.602-1.35-2.582.333 2.895.724 1.8 1.212 2.387 1.33 2.386.392 1.233-.724-.822-2.152-2.348-1.82-2.464-.938-1.585.137-1.956.235-4.246.371-3.13.255-3.423.606-3.58.743-2.974.548-2.934-.059-.978-.645-.607-.704-.078-.548.352-1.39 1.898s-1.854 2.348-2.758 3.54c-.624.824-1.296 1.616-1.838 2.496-.59.955-1.015 2.003-1.526 3.002-.616 1.202-1.292 2.374-1.859 3.6-.577 1.247-1.145 2.505-1.565 3.814a41.1 41.1 0 00-1.408 5.967c-.256 1.57-.327 3.166-.43 4.754a46.238 46.238 0 00-.118 2.934 48.87 48.87 0 00.117 3.189c.078 1.222.128 2.451.333 3.658.103.61.45 1.8.45 1.8l-1.585 3.071-1.898 4.09-1.036 3.403-.49 3.345-.528 3.209s-1.173 4.851-1.173 4.988c0 .137-.02.998-.02.998l.528-1.017 1.154-5.243.607.02-.391 2.25-.313 1.584.195.782.88-.176.842-.958 1.095-1.741 1.115-3.522.196.294 1.682-3.483" stroke-width=".271"/><path d="M25.44 83.174s2.419.63 3.658.724c2.279.17 4.572-.104 6.847-.313 2.079-.192 6.202-.783 6.202-.861 0-.078 1.992-4.089 1.992-4.089" stroke-width=".541"/><path d="M51.107 68.951l3.286 4.402 3.444 4.578s1.943 2.324 2.817 3.56a40.776 40.776 0 012.112 3.365c.679 1.192 1.346 2.395 1.879 3.659.486 1.153 1.193 3.56 1.193 3.56l-.078 3.717s-1.806-1.244-2.7-1.878c-.873-.618-1.786-1.187-2.602-1.878-.637-.54-1.199-1.162-1.78-1.76-.46-.474-.864-1.003-1.35-1.448-.5-.459-1.07-.835-1.604-1.252-.75-.587-1.528-1.14-2.25-1.761-2.18-1.872-4.384-3.748-6.28-5.908-.853-.973-2.27-3.15-2.27-3.15" stroke-width=".271"/><path d="M49.307 70.85l2.817 3.423 3.032 3.638 3.287 3.248 2.602 2.19.939.294M53.591 57.038l6.006.821 7.571 1.644 7.728 2.386 7.766 3.482 3.658 1.39-3.423-.118-5.928-1.565-4.832-1.467-4.069-.646-5.752-1.076-5.105-1.213-3.933-.743" stroke-width=".271"/><path d="M53.273 60.047l.16-2.973s-.818-.773-1.055-1.269c-.403-.846-.547-2.758-.547-2.758l-.646-3.365-1.408-2.739-.51-1.017" stroke-width=".541"/><path d="M44.142 78.8s-.014-.752-.049-1.127c-.033-.362-.147-.716-.152-1.079-.006-.413.138-1.231.138-1.231s1.251-.02 1.854-.166c.557-.135 1.163-.27 1.59-.65.371-.33.494-.86.72-1.3a80.567 80.567 0 001.12-2.352l.845-.816.954-1.08-.097-1.562s.038-1.723.222-2.56c.23-1.052 1.092-3.043 1.092-3.043l.913-1.964" stroke-width=".541"/><path d="M57.069 65.168l-1.273-2.089-1.535-2.006-.982-1.148M33.096 68.1s-1.9-.512-2.808-.885c-.71-.291-1.303-.867-2.048-1.051a2.918 2.918 0 00-1.41-.014c-.37.096-.63.46-.997.567-.43.126-.9.146-1.341.07-.32-.056-.737-.093-.9-.374-.163-.282.374-.759.125-.968-.336-.283-.825.32-1.259.387-.383.06-1.162.014-1.162.014" stroke-width=".271"/><path d="M23.62 65.528s.351-.496.609-.637c.313-.171.694-.222 1.051-.207.484.02.955.202 1.397.4.314.142.59.356.872.554.234.165.678.526.678.526M34.889 60.794c-.473-.57.314-1.45.548-2.152.296-.89.524-1.843 1.076-2.602.509-.7 1.243-1.223 1.976-1.683.766-.48 1.6-.905 2.484-1.095.829-.178 1.717-.207 2.543-.02.856.194 1.661.633 2.367 1.155.676.498 1.318 1.102 1.722 1.838.405.738.548 1.608.626 2.446.083.891.178 1.858-.176 2.68-.19.44-.549.842-.978 1.056-.628.314-1.392.242-2.093.216-1.066-.04-2.107-.344-3.15-.568a56.541 56.541 0 01-3.384-.84c-.592-.166-1.15-.476-1.761-.549-.597-.07-1.416.58-1.8.118z" stroke-width=".271"/><path d="M44.925 62.613s.867-.907 1.174-1.448a5.416 5.416 0 00.567-1.545c.121-.57.16-1.161.117-1.741a6.61 6.61 0 00-.371-1.702c-.165-.468-.423-.898-.665-1.33-.175-.312-.568-.91-.568-.91" stroke-width=".271"/><path d="M43.917 62.466s.98-.793 1.34-1.3c.342-.481.614-1.03.744-1.605.135-.598.1-1.231.02-1.839-.09-.671-.301-1.326-.548-1.956-.204-.519-.426-1.044-.763-1.487-.298-.39-1.084-.998-1.084-.998M36.728 60.676s-.53-.616-.704-.978a3.462 3.462 0 01-.29-1.031c-.046-.342.002-1.036.002-1.036M35.887 60.755s-.34-.421-.45-.666c-.138-.307-.248-.979-.248-.979M23.772 58.473c.424-.192.64-.68.9-1.066.226-.337.47-.684.567-1.078.17-.7.078-1.445-.014-2.158-.103-.789-.28-1.58-.595-2.31-.24-.556-.508-1.143-.968-1.536-.24-.205-.557-.396-.872-.374-.264.02-.494.224-.678.415-.333.347-.526.813-.705 1.26a6.645 6.645 0 00-.415 1.604c-.07.526-.016 1.06-.014 1.59.002.573-.033 1.147.028 1.716.042.402.112.805.235 1.19.078.245.103.563.318.705.616.406 1.541.346 2.213.042zM42.656 74.234s-2.584.097-3.874.039c-1.624-.074-3.27-.118-4.852-.49-2.015-.472-5.81-2.19-5.81-2.19M21.508 61.165s.953-.781 1.506-1.036a5.731 5.731 0 011.976-.529 5.317 5.317 0 011.937.235c.71.221 1.375.598 1.976 1.037.577.422.97 1.057 1.526 1.506.49.397 1.584 1.037 1.584 1.037M40.171 45.554c-.117 0-1.635.034-2.426.215-.843.193-1.617.614-2.426.92-1.056.399-2.052 1.031-3.169 1.193-.712.103-1.453.015-2.152-.156-.476-.118-1.089-.172-1.35-.587-.17-.271-.091-.667.04-.959.248-.556.824-.906 1.31-1.272a9.068 9.068 0 012.094-1.193c1.016-.402 2.117-.548 3.188-.763.842-.168 1.685-.427 2.543-.41.566.01 1.204.002 1.663.332.245.175.601.522.45.782-.006.012-.039 0-.039 0" stroke-width=".271"/><path d="M32.894 39.685s-1.763-.589-2.68-.665c-.841-.07-1.698.023-2.524.196-.973.203-1.95.491-2.817.978-.877.492-1.624 1.2-2.328 1.917-.618.63-1.134 1.354-1.644 2.074-.374.528-.775 1.05-1.036 1.643-.258.582-.326 1.23-.51 1.839-.096.322-.36.626-.312.958.049.344.327.63.587.861.253.225.563.434.9.47.564.06 1.136-.194 1.643-.45.683-.346 1.19-.966 1.8-1.428.834-.632 1.693-1.23 2.543-1.84.806-.577 1.58-1.203 2.426-1.72.684-.42 1.388-.818 2.132-1.116.636-.255 1.308-.414 1.976-.567.561-.129 1.13-.365 1.702-.294.255.032.704.313.704.313M39.604 42.64l-1.565-1.527-1.878-.939-1.39-.724-.508-1.056.41-.587 1.292.02 1.272.508 1.017.724.822.86.156.686M33.109 38.805s-1.447-.31-2.152-.528c-.952-.296-1.878-.673-2.798-1.057-1.098-.458-2.27-.807-3.247-1.487-.417-.29-.882-.607-1.076-1.076-.137-.331-.268-.837 0-1.076.373-.331 1.005.047 1.487.176.671.18 1.284.534 1.917.822.685.311 1.372.621 2.034.978.636.343 1.223.773 1.859 1.115.624.336 1.269.633 1.917.92.238.105.724.293.724.293" stroke-width=".271"/><path d="M19.708 29.278l.783 1.173 2.68 1.957 1.936 1.173 3.15 1.39 2.27 1.232 3.11 1.682.646-.489-3.15-1.839-2.7-1.31-2.72-1.292-3.09-2.034-2.27-1.996-1.114-.489zM19.512 43.109l1.35-1.292 1.917-1.858 1.644-1.037 2.347-.724 1.859-.058 1.526-.098" stroke-width=".271"/><path d="M23.836 39.411l-.704-2.347-.333-2.817-.137-2.133-.02-.117M22.603 30.843l.02-2.622.646-2.64 1.036-3.6.959-3.463.802-3.052 1.076-3.267 1.154-2.915.215-1.056.048-.208M42.48 41.994l.508-2.015.372-2.426-.313-2.759-.49-2.993-.664-2.621M40.347 42.13l-.45-2.914-1.056-2.583-.978-2.563.02-2.386.038-2.543M39.095 40.546l-.02-1.76-1.486-2.427-1.507-1.8-1.858-1.506-1.585-1.134-1.643-1.78-1.31-2.192-1.272-3.11L30.8 28.24l1.663 2.543 1.957 1.663 1.584 1.35 1.526 1.819M26.555 27.184l-.215 1.37.626 1.017-.098.646 1.057 1.584.802 1.115 1.017 1.174.41.704" stroke-width=".271"/><path d="M26.555 27.282l.665.685.137-1.174.685.724.059-.372.821 1.154.9 1.115 1.037 1.39.254 1.056.45.313v.626l.372.704 1.291.607 1.33.939 1.487 1.604 1.409 1.252.391.763M47.175 44.165c.097 0 .9-.9.9-.9l-.06 1.33M31.298 58.265s1.02-2.142 1.743-3.07c.933-1.2 1.985-2.38 3.292-3.155 1.206-.716 2.62-1.102 4.012-1.272 1.164-.143 2.365-.022 3.513.22 1.222.26 3.514 1.301 3.514 1.301M37.37 50.823c-.462-.117-.988-.285-1.258-.678-.185-.268-.197-.65-.125-.968.071-.316.256-.638.526-.816.401-.267.975-.424 1.425-.25.26.102.243.586.511.665.17.049.329-.23.498-.18.392.114.727.56.747.968.017.331-.274.627-.525.844-.263.227-.615.344-.955.415a1.907 1.907 0 01-.844 0zM24.865 48.43c.014-.344.401-.568.664-.789.274-.23.612-.37.927-.54.186-.098.39-.39.567-.276.256.165.078.628-.028.913-.107.29-.331.538-.58.72-.28.203-.623.36-.969.373a.617.617 0 01-.373-.11c-.097-.07-.213-.172-.208-.291z" stroke-width=".271"/><path d="M20.452 55.084s-.177-1.033-.138-1.55c.045-.6.227-1.189.429-1.757.118-.331.362-.614.453-.954.081-.304.074-.94.074-.94M25.44 83.203s.552-.677.665-1.086c.198-.713.03-1.481-.02-2.22-.047-.708-.079-1.427-.263-2.113-.185-.684-.5-1.33-.832-1.956-.313-.59-.64-1.186-1.086-1.682-.493-.549-1.721-1.39-1.721-1.39L20.9 71.623l-.45-.538" stroke-width=".541"/><path d="M25.502 83.41l-.59-1.713-.665-2.084-.89-2.836-.685-2.318-.391-1.145-.118-.557" stroke-width=".271"/><path d="M20.451 54.983v1.448l-.254 1.898s-.504.764-.704 1.174c-.381.778-.728 1.584-.94 2.425a9.653 9.653 0 00-.293 2.387c.006 1.138.105 2.3.45 3.384.391 1.229 1.8 3.424 1.8 3.424M43.438 42.052l2.054.88 2.485 1.742 1.389 1.389" stroke-width=".541"/></g></svg>