<svg width="100mm" height="100mm" viewBox="0 0 100 100" xmlns="http://www.w3.org/2000/svg"><g stroke="#000" stroke-linejoin="bevel"><path d="M9.226 36.737c-1.334 3.296-2.675 6.603-3.67 10.017C3.73 53.031.51 59.433 1.365 65.914c.408 3.1 2.5 5.78 4.31 8.329 1.685 2.374 4.155 4.094 5.998 6.348 1.984 2.427 3.052 5.63 5.416 7.688 1.697 1.476 3.03 1.56 4.636 2.904.381.403.937 1.03 3.15 1.728 1.91.602 3.267.9 4.344.843 2.07.37 4.826 1.057 6.798 1.106 5.014.124 10.085-.467 14.953-1.675 2.07-.514 3.916-1.715 5.955-2.344a28.283 28.283 0 013.844-.873c2.407-.388 4.903-.155 7.28-.7 1.09-.249 2.216-.542 3.145-1.164 1.689-1.132 2.703-3.04 4.135-4.485 1.537-1.55 3.356-2.824 4.775-4.484 1.861-2.178 3.59-4.524 4.834-7.105 1.253-2.6 1.974-5.445 2.562-8.27.613-2.945-.353-6.278.99-8.969 1.381-2.764 4.944-3.845 6.756-6.348 1.885-2.603 3.776-5.537 4.077-8.736.103-1.097-.232-2.269-.815-3.203-.62-.993-1.611-1.792-2.68-2.271-1.77-.795-3.883-.34-5.765-.816-2.168-.548-4.217-1.491-6.29-2.33-2.417-.977-4.949-1.767-7.163-3.144-.948-.59-1.577-1.631-2.563-2.155-.873-.465-2.056-.23-2.853-.815-.938-.688-1.118-2.072-1.922-2.912-.846-.884-2.126-1.27-2.97-2.155-.465-.487-.618-1.227-1.107-1.69-1.043-.985-2.341-1.782-3.727-2.154-.207-.055-.443.079-.641 0-.472-.188-.673-.784-1.107-1.048-1-.611-2.352-.502-3.32-1.165-1.135-.78-1.625-2.258-2.678-3.145-.466-.393-1.09-.56-1.573-.932-1.294-.996-1.87-3.254-3.494-3.436-.953-.107-1.488 1.541-2.446 1.514-.71-.02-1.456-1.223-1.747-1.223-.291 0-2.57.516-3.436 1.398-1.547 1.573-.386 5.247-2.388 6.173-1.287.596-2.61-1.242-4.019-1.397-1.01-.112-2.012.36-3.028.349-1-.01-2.094-.887-2.97-.408-1.014.555-.856 2.158-1.456 3.145-.791 1.3-1.704 2.55-2.796 3.611-1.206 1.171-2.833 1.838-4.077 2.97-1.149 1.046-1.926 2.461-3.086 3.495-.406.361-.824.759-1.34.931-1.437.482-3.08-.22-4.542.175-.638.173-1.313.435-1.748.932-.477.546-.684 1.317-.757 2.038-.192 1.896 1.125 3.76.874 5.65-.05.379-.323.693-.466 1.048z" fill="none" stroke-width=".806"/><path d="M29.344 63.125c4.892-.039 12.622 2.937 12.416 7.825-.206 4.889-8.148 7.03-13.033 6.753-4.292-.242-10.735-2.887-10.708-7.186.03-4.508 6.817-7.356 11.325-7.392zM52.591 36.09c-.409-.566.013-1.515.474-2.039 1.136-1.294 3.127-1.616 4.839-1.812 3.033-.346 6.256.034 9.08 1.194 2.216.911 3.93 2.757 5.724 4.345 1.454 1.287 4.057 4.18 4.057 4.18l-.598.494s-2.155-2.33-3.376-3.336c-1.636-1.347-3.331-2.686-5.251-3.582-1.331-.621-2.775-1.112-4.242-1.195-1.312-.073-2.627.278-3.891.639-1.187.339-2.199 1.234-3.418 1.42-1.125.172-2.732.613-3.398-.308zm-29.218-1.854c.578.203 1.28.387 1.833.124.429-.204.717-.7.823-1.163.103-.448-.048-.936-.226-1.36-.17-.4-.43-.782-.772-1.05-.553-.43-1.262-.641-1.946-.792a10.1 10.1 0 00-3.49-.165 7.96 7.96 0 00-2.76.896c-.867.477-1.582 1.198-2.285 1.894-1.28 1.265-3.49 4.118-3.49 4.118l.154.464s2.062-1.857 3.171-2.688c.77-.576 1.57-1.117 2.41-1.585.462-.258.918-.582 1.44-.67.555-.092 1.133.04 1.679.176.721.18 1.415.48 2.07.834.496.268.856.78 1.389.967zM41.41 87.381s-1.074 1.647-1.791 2.306c-.964.887-2.132 1.537-3.295 2.142-.978.508-2 .957-3.068 1.235-1.681.438-3.442.832-5.17.657-1.224-.123-2.51-.489-3.658-.93-.923-.356-1.793-.69-2.56-1.432-.657-.637-.844-1.728-.76-2.64.066-.718.53-1.361.968-1.935.336-.442.706-.958 1.239-1.114.446-.13.912.195 1.376.228 1.561.112 3.136-.245 4.694-.102 2.192.2 4.282 1.065 6.466 1.338 1.84.23 5.56.247 5.56.247M15.108 60.295c-.993-.452-2.042-.873-2.854-1.602a8.331 8.331 0 01-2.096-2.941c-.324-.773-.368-1.64-.437-2.475-.087-1.045-.153-2.054.03-3.087.267-1.52.903-2.962 1.543-4.368.58-1.278 1.073-2.68 2.07-3.669.826-.819 1.9-1.607 3.055-1.747.998-.121 2.013.335 2.912.786.982.493 1.921 1.167 2.591 2.039 1.031 1.34 1.592 3.02 2.01 4.659.443 1.738.589 3.567.494 5.358a14.447 14.447 0 01-.786 3.93c-.38 1.1-.695 2.353-1.572 3.117-.62.538-1.514.704-2.33.795-1.135.128-2.293-.105-3.407-.359a6.419 6.419 0 01-1.223-.436z" fill="none" stroke-width=".806"/><path d="M60.974 61.762l2.822 3.104 1.573 3.407-1.427-1.613.844 2.662-5.212 2.096-4.485-3.115-4.808-1.835 2.42 2.097-7.629-3.35-5.067-1.95 1.743 1.718-7.683-3.436 1.194 1.34-4.041-1.631-2.948.64.64-.806-4.92 1.632 1.019-1.146-9.202 4.513 1.34-1.28-3.116.99s-4.63-1.282-4.485-1.37c.146-.087 5.562-4.134 5.562-4.134M4.758 49.293l1.76-1.229-.437-.99 3.378.233-1.427-.902 2.646.203m77.812 8.183l.29-2.883-.64-2.359 2.3-.873 2.272-2.01 2.126-2.332 1.077-1.831-1.514.844 1.776-2.33-.64.204.524-.844-.641-1.223-1.485-.291-1.835.553-2.27 1.281-.933 1.136-.64 2.096-.495 2.33.203 2.504.175.786m-9.572-20.554l2.875 3.461.728 1.777 1.601 1.921 2.01 4.834-.874-.611 2.067 3.203.262.99.7-1.808.96-.93M9.692 35.689l.986-2.36s1.27-2.256 1.27-2.329c0-.072 1.238-1.655 1.311-1.655.073 0 2.148-2.336 2.148-2.336m55.786-2.036l.232 1.193-1.193.131 1.66 1.471-.714-.116.713 2.46-2.227-.058-1.966-.437-.859.524-5.285.088-6.785-3.262.422 1.456-1.427.443-5.78 3.765-1.893.146-1.805-.626-5.853-3.087-4.193-1.718.043-1.398.466-1.136s-2.417.292-2.475.292H28.11l-7.382 2.242-1.135-.714-2.55.728.162-1.397" fill="none" stroke-width=".403"/><path d="M70.232 26.297l-3.433-2.026-5.127-2.43-5.436-1.936-2.76-.998-3.582-.515-1.153.638-1.884.165-.937.741.38 1.493m4.967-3.86l-.844-.67-.43-1.456-1.12-2.86-1.085-2.483-1.58-2.25" fill="none" stroke-width=".403"/><path d="M49.797 14.94l.611-2.074.947-1.216 1.157.24 1.828 1.034-1.717-2.855m-4.005 5.461c0-.065-1.384-1.696-1.384-1.696l-2.053-.487-1.584-.022-1.997.604-.976.378-.67 1.122-1.317-1.23m-13.485 4.473s2.448-1.038 2.507-1.067c.058-.029 1.689-.407 1.689-.407l.684-1.85.757-1.47.8-.728" fill="none" stroke-width=".403"/><path d="M29.348 17.198l1.732-.641 1.413.743m9.74 2.897l-1.63-2.004-2.52-1.083m1.871-1.681l.648 2.764" fill="none" stroke-width=".403"/><path d="M28.714 84.381c.065.664-1.34 1.484-1.34 1.484l2.97.09s-1.538-.965-1.603-1.561c-.029-.26-.78-4.522-.78-4.522s.717 4.138.753 4.509z" fill-opacity=".973" stroke-width=".439"/><path d="M20.262 41.659s-1.242.938-2.155 1.76c-.972.878-1.933 1.81-2.55 2.785-.685 1.084-1.237 2.277-1.555 3.52-.312 1.218-.405 2.503-.32 3.757.077 1.16.368 2.31.756 3.407a9.54 9.54 0 001.12 2.242c.463.67 1.662 1.791 1.662 1.791l2.518.17 1.652-.38s-1.461-.807-2.089-1.348a9.672 9.672 0 01-1.684-1.922 11.218 11.218 0 01-1.228-2.446c-.247-.684-.436-1.4-.495-2.126a8.725 8.725 0 01.175-2.533c.229-1.054.552-2.122 1.136-3.029.468-.727.969-1.36 1.834-2.25.525-.54 1.217-.99 1.835-1.42.574-.399.994-.876.994-.876z" fill="none" stroke-width=".403"/><path d="M21.641 43.026s1.223 1.715 1.56 2.534c.43 1.04.73 2.14.935 3.246.222 1.195.338 2.417.316 3.632a16.545 16.545 0 01-.417 3.404c-.263 1.146-.524 2.337-1.141 3.337-.376.61-.794 1.445-1.504 1.532-.624.077-1.111-.599-1.607-.984-.628-.487-1.222-1.034-1.711-1.66a10.976 10.976 0 01-1.494-2.57c-.344-.837-.616-1.725-.684-2.628-.08-1.08.048-2.19.343-3.233.207-.735.614-1.623 1.07-2.354.573-.919 1.225-1.784 2.065-2.507.738-.633 2.269-1.749 2.269-1.749zm50.861 15.386c.15-.06.283-1.353.31-2.04a14.09 14.09 0 00-.227-3.048c-.192-1.056-.46-2.113-.906-3.089-.387-.846-.885-1.657-1.51-2.347-.733-.81-1.634-1.47-2.567-2.038-.772-.47-1.576-1-2.472-1.113-1.393-.174-2.805.32-4.148.73a15.485 15.485 0 00-3.473 1.542c-1.11.669-2.177 1.451-3.057 2.403-.833.903-1.447 1.993-2.042 3.068-.422.762-.838 1.543-1.075 2.38-.199.704-.28 2.174-.28 2.174s.208 1.743.527 2.55c.28.707.687 1.379 1.194 1.946.354.394 1.254.976 1.254.976l3.432-.09 4.335-.886 7.535-1.847z" fill="none" stroke-width=".403"/><path d="M57.462 62.416s-1.286-.681-1.762-1.326c-.52-.704-1.547-2.105-1.873-3.339-.306-1.155-.218-2.405-.021-3.583.216-1.29.873-2.331 1.604-3.417.64-.948 1.577-1.672 2.52-2.265 1.172-.736 2.637-.944 4.02-.921 1.376.022 2.547.049 3.748.72 1.126.628 2.1 1.656 2.81 2.733.687 1.043 1.089 2.276 1.338 3.5.188.922.185 1.98.103 2.821-.18 1.853-.407 2.308-.407 2.308l-6.1 1.443zm29.372 4.234l-.092-3.928-1.426-2.748.407-.524-1.398-1.893-2.591-1.194 2.417.758s-.99-1.165-1.107-1.165c-.116 0-2.33-1.048-2.33-1.048l1.69-.67-3.524-.757h-3.232l.029.058" fill="none" stroke-width=".403"/><path d="M75.648 53.48s-.102 1.92-.583 2.709a4.521 4.521 0 01-.61.784c-.66.688-1.521 1.214-2.36 1.662-1.904 1.017-4.106 1.346-6.202 1.863-3.495.864-7 2.029-10.6 2.068-.857.01-1.774-.04-2.533-.437-.724-.379-1.418-.988-1.718-1.747-.461-1.165-.128-2.523.087-3.756.285-1.633.781-3.261 1.573-4.718.735-1.353 1.715-2.605 2.882-3.61 1.071-.923 2.377-1.554 3.67-2.126 1.313-.582 2.68-1.125 4.105-1.31 1.533-.2 3.142-.185 4.63.232 1.393.39 2.722 1.12 3.815 2.068 1.081.936 1.84 2.207 2.563 3.442.541.924 1.31 2.935 1.31 2.935M41.41 87.381s2.768-.393 4.119-.741a28.287 28.287 0 003.768-1.277c.77-.32 1.551-.646 2.244-1.112.696-.468 1.895-1.492 2.525-2.046 1.325-1.166 3.343-3.107 3.343-3.107s-.351.986-.597 1.447c-.22.415-.501.796-.782 1.174-.655.88-1.332 1.75-2.1 2.532-.737.75-1.52 1.468-2.389 2.06a19.905 19.905 0 01-3.892 2.038 19.84 19.84 0 01-4.052 1.112c-1.31.214-4.065.255-4.065.255l1.878-2.335v0M23.315 85.67s-1.449-.13-2.166-.245c-.63-.101-1.286-.142-1.874-.391-.878-.373-1.721-.905-2.367-1.606-1.587-1.722-3.457-6.116-3.457-6.116s2.06 4.612 3.25 6.836c.386.72.693 1.51 1.257 2.1.523.549 1.205.942 1.894 1.257.468.213 1.488.413 1.488.413.544-1.139 1.25-1.728 1.975-2.248z" fill="none" stroke-width=".806"/></g></svg>