<svg width="100mm" height="100mm" viewBox="0 0 100 100" xmlns="http://www.w3.org/2000/svg"><g fill="none" stroke="#000" stroke-linejoin="bevel"><path d="M16.629 84.155L9.47 74.61l-4.555-8.025 1.157-7.59 2.53-6.797 2.17-4.627-3.905-9.11 2.965 1.085 2.024-2.314.867-2.747 2.459-4.482 2.24-3.688.435 2.459.723-3.326 1.662-2.241 1.013-2.314 1.373 3.615 2.314-.434.217-1.807 13.592-2.025 2.024 3.688 3.687-.506 2.964-2.82.868 2.386V26.1l4.483-2.675 4.12-1.808s2.605-1.16 3.832-1.88c1.061-.622 1.958-1.506 3.037-2.096 1.146-.628 3.615-1.519 3.615-1.519l-1.157 3.543 12.724-2.892 10.267-2.53 2.747.217 2.675-1.374-.217 2.747-1.735 7.375-1.952 7.374-2.82 8.965 4.7-1.301-1.23 2.602-5.566 6.29-5.712 4.772-4.193 3.47-6.58 3.037 7.592 1.373-5.856 3.11-4.193 1.011 1.518 1.302-7.158.361 3.037 6.58 2.024 7.88-5.422-1.446-.65 9.11-4.122-6.652L62.176 95l-12.652-6.796-8.531-.507-3.904.651-9.327-5.278z" stroke-width=".5"/><path d="M10.71 47.595l.665-4.55 2.3-4.499 3.144-2.684 3.144-1.814 4.73.076 6.44 1.406 7.183 2.505 6.927 3.706 9.253 6.288 2.301-1.15.716 1.432.818-2.965s3.567-2.022 5.06-3.4c.393-.362.648-.85.998-1.253 1.13-1.301 2.477-2.41 3.553-3.757 2.245-2.813 3.763-6.157 6.007-8.972a37.092 37.092 0 014.277-4.54c1.618-1.445 3.387-2.721 5.206-3.904 1.782-1.158 3.75-2.005 5.567-3.108 1.011-.615 2.964-1.952 2.964-1.952" stroke-width=".5"/><path d="M94.566 15.58l-3.832 10.917-4.772 12.435-3.868 7.122-3.036 3.29-.542.036-4.158 4.229-11.459 5.06-1.048 4.086-.47 2.928M55.38 52.524c-.811.055-1.602.544-2.158 1.138-1.182 1.263-1.627 3.08-2.112 4.74-.52 1.782-.683 3.658-.827 5.51a30.87 30.87 0 00-.027 4.59c.054.756.379 2.152.976 3.028.3.44.769.76 1.238 1.012.534.287 1.13.542 1.735.542.808 0 1.645-.27 2.314-.723.727-.492 1.265-1.26 1.663-2.042.633-1.247.792-2.687 1.066-4.058.275-1.372.537-2.759.579-4.157.045-1.534.04-3.11-.362-4.591a9.927 9.927 0 00-1.59-3.29 5.067 5.067 0 00-1.41-1.3c-.329-.202-.7-.424-1.085-.399z" stroke-width=".25"/><path d="M51.006 66.044s.37 1.286.723 1.844c.306.482.69.944 1.175 1.247.466.29 1.024.516 1.573.488.55-.029 1.06-.345 1.518-.65.475-.317.894-.731 1.229-1.194.322-.445.723-1.482.723-1.482s.185 1.16.108 1.735a5.292 5.292 0 01-.687 2.025 4.71 4.71 0 01-1.373 1.446c-.457.31-.986.58-1.537.614a3.401 3.401 0 01-1.952-.506c-.436-.269-.77-.705-1.012-1.157-.315-.588-.44-1.27-.524-1.934-.103-.819.036-2.476.036-2.476z" stroke-width=".25"/><path d="M54.683 66.18c-.313.01-.604-.26-.785-.515-.261-.37-.281-.869-.325-1.32a4.378 4.378 0 01.063-1.31c.113-.54.232-1.125.587-1.546.262-.309.652-.696 1.049-.614.38.079.554.575.687.94.21.579.17 1.23.123 1.843-.046.603-.113 1.19-.393 1.772-.168.347-.588.738-1.006.75z" stroke-width=".25"/><path d="M54.477 60.26c-.493.37-.932.853-1.193 1.41-.323.687-.393 1.483-.398 2.241-.004.535.032 1.1.257 1.585.226.484.562.987 1.044 1.217.321.153.74.167 1.067.027.417-.179.689-.615.911-1.01.284-.505.427-1.058.5-1.663.064-.536.111-1.118.027-1.668a5.038 5.038 0 00-.516-1.56c-.112-.214-.434-.579-.434-.579l-.036-6.326s.796 1.604 1.048 2.458c.28.95.374 1.947.506 2.928.134.996.269 1.996.29 3 .017.87.048 1.756-.145 2.604-.168.737-.504 1.433-.868 2.096-.262.478-.52.99-.94 1.338-.356.296-.803.612-1.265.578-.53-.039-.998-.458-1.338-.867-.395-.477-.554-1.117-.705-1.718-.189-.757-.237-1.55-.234-2.331.003-.897.119-1.795.289-2.675.21-1.094.558-2.159.903-3.217a32 32 0 01.793-2.123c.26-.638.834-1.89.834-1.89l-.072 6s-.23.074-.325.145zM12.4 78.371l1.481-1.88 7.772 1.446 5.965-3.542 2.964.795 8.16-7.564s.301-.77.046-.967c-.29-.224-1.048.325-1.048.325l-7.266 5.64-3.326-1.049-6.58 3.868-8.097-1.41-1.626 2.35M25.485 60.369s-.555-2.71-.615-4.085c-.065-1.52-.305-3.155.29-4.555.37-.871 1.143-1.55 1.916-2.096a8.698 8.698 0 013.398-1.446c1.007-.187 2.066-.089 3.072.108 1.134.222 2.283.567 3.254 1.193.88.568 1.562 1.413 2.205 2.241.457.59 1.157 1.916 1.157 1.916l-4.736 1.048-3.073.904-3.362 2.097zM15.833 66.695c0-.29.17-1.331.47-1.916.203-.395.474-.807.868-1.012.44-.23 1.012-.306 1.482-.145.58.2 1.337 1.265 1.337 1.265s-1.456.171-2.132.434c-.524.204-.992.537-1.446.868-.207.15-.579.506-.579.506z" stroke-width=".25"/><path d="M44.167 72.37l.221-.237-.178-8.005.506-5.458 1.627-4.302 2.133-3.543-6.037-4.048-6.398-3.181-6.905-2.784-5.82-1.048-5.242.036-2.602 1.301-2.748 3.832-1.915 2.603" stroke-width=".5"/><path d="M27.785 83.074l3.093-.741-1.457-.972 3.783-.153s-.01-1.198-.179-1.764c-.259-.865-1.252-2.403-1.252-2.403s3.17.32 4.728.64c1.412.288 4.167 1.15 4.167 1.15s.138-1.45.23-2.173c.139-1.094.213-2.203.486-3.272.22-.862.92-2.505.92-2.505s1.072.711 1.508 1.176c.165.176.33.357.49.542.657.76 1.247 1.596 1.606 2.525.378.98.434 2.991.434 3.119 0 0 3.907-1.926 5.982-2.556.705-.215 1.495-.12 2.172-.41.916-.39 1.73-1.029 2.429-1.737.744-.754 1.329-1.667 1.815-2.608.485-.941.788-1.97 1.073-2.99.38-1.357.666-2.744.844-4.141.166-1.312.297-2.643.204-3.962-.078-1.117-.34-2.219-.639-3.298-.325-1.171-.498-2.471-1.252-3.425-.614-.777-1.54-1.322-2.48-1.636-.785-.262-1.724.187-2.48-.153-.01-.005-.025-.026-.025-.026" stroke-width=".25"/><path d="M61.833 62.778s.241-2.801.102-4.192c-.157-1.565-.46-3.142-1.048-4.6-.414-1.025-.926-2.063-1.713-2.838-.64-.63-1.47-1.088-2.326-1.355-.636-.198-1.994-.153-1.994-.153M58.535 45.806l5.189-3.374 3.476-3.605 1.84-1.763 5.062-8.026.409-.588 9.943-2.02-3.757 7.132-3.86 5.674-6.902 5.7 5.317.41 2.607 1.635s-2.632 1.764-2.735 1.764c-.102 0-8.69.588-8.69.588" stroke-width=".25"/><path d="M75.175 48.72s-1.891 1.661-2.019 1.661c-.128 0-5.751 3.016-5.751 3.016l-2.147.051.128-.025M12.58 35.462l5.386-2.856-.29-4.193M22.485 24.437l1.41 3.687 2.385-.615-2.205-1.59 3.543-.542-.94-1.844 6.688-.18 3.18 2.24 3.435-.216 4.048-1.121.579-.831M48.187 25.919l-.398 5.64 3.976-2.098-1.084 3.796h8.82l-1.265 7.41M40.415 81.66l5.06 2.64 7.809.686M60.694 75.84l-2.241 2.929-5.278.867 1.735 4.23" stroke-width=".25"/><path d="M36.983 77.822l.03-.187 3.71-1.401.276-.059" stroke-width=".5"/><path d="M65.43 49.09c.18-.108 9.688-7.844 9.688-7.844l6.47-8.531 2.748-6.29-9.074 1.807" stroke-width=".25"/></g></svg>