<svg width="100mm" height="100mm" viewBox="0 0 100 100" xmlns="http://www.w3.org/2000/svg"><g fill="none" stroke="#000" stroke-linejoin="bevel"><path d="M97.777 14.463c-.361-.32-.947-.256-1.428-.226-1.263.079-2.448.644-3.645 1.052a55.351 55.351 0 00-4.472 1.766c-2.921 1.29-5.775 2.731-8.605 4.209a155.74 155.74 0 00-7.703 4.284c-3.6 2.146-10.597 6.764-10.597 6.764l-2.067 1.427-.563-.187 1.54-1.88.489-1.202-1.466.714 1.729-3.42 1.879-.638-1.616-.639-.3-.413-.189.188-1.315-.338-.601-.038-3.156.639 1.014-2.217.113-1.842-1.578 1.015-.263-2.03s-1.88 2.143-1.842 1.88c.038-.263.376-1.165.376-1.165l.038-1.015 1.428-3.983-1.466 1.766-1.503 1.766-1.653 2.405-.188-2.818-.15-1.616-.301-2.367-1.39 1.465-.564.526-.413-.676-.752.714.3-1.165.226-1.202.489-2.217-1.88 2.968-.187-.3-1.203 2.743-.225.639-1.015 2.517.076-2.78-.263-1.541-2.819 1.804-2.142 2.667-1.24 4.435-.864 3.381-.376 1.954-.526-1.84-.902-1.09-.526 1.878-.563 1.954-.263 1.466s-1.172-1.702-1.804-2.518c-.73-.942-1.475-1.876-2.292-2.743-.826-.877-1.722-1.689-2.63-2.48a45.958 45.958 0 00-2.48-1.992c-.846-.639-1.732-1.223-2.593-1.84-.817-.586-1.577-1.258-2.443-1.767-.87-.51-1.74-1.382-2.743-1.278-.374.04-.724.346-.902.677-.308.575-.145 1.302-.113 1.954.04.798.222 1.583.376 2.367.317 1.616.674 3.227 1.127 4.81.376 1.31.923 2.566 1.316 3.87.425 1.414.725 2.863 1.127 4.284.435 1.537.93 3.056 1.39 4.584.416 1.378.778 2.772 1.24 4.134.488 1.434.937 2.893 1.616 4.246.44.876.997 1.692 1.578 2.48.39.53 1.278 1.503 1.278 1.503s-.548 1.42-.79 2.142c-.248.744-.577 1.476-.676 2.255-.08.634.076 1.916.076 1.916V62.185l-1.917 1.503h2.292l.339 1.315 1.052 1.54.263 1.993.94 1.916 1.39 1.09 2.33.263.15.413-.902 1.127 1.428.075-.977 2.03 3.457.563-1.278 1.203.94 1.014c8.176 3.628 14.834 1.863 21.644.64l1.39-.677 3.044 1.202-2.142-3.006.564-.188-.15-1.69 3.682-.527-3.87-3.269.713-1.804 5.336-1.578 3.044-.113-2.518-3.081 4.96-.188-5.185-2.292-.3-.413 4.734-.865-3.344-.789-1.316-.94-.45-1.24.225-.525s2.43 1.585 3.795 2.029c.866.282 2.706.376 2.706.376l-4.81-3.833s3.05-.782 4.434-1.503c1.2-.626 2.283-1.479 3.27-2.405 1.094-1.029 1.94-2.295 2.892-3.457a211.363 211.363 0 003.533-4.397c1.46-1.88 2.867-3.799 4.283-5.711a548.539 548.539 0 003.683-5.036c1.678-2.32 3.393-4.616 4.998-6.989 1.199-1.773 2.405-3.547 3.457-5.411.597-1.059 1.274-2.103 1.615-3.27a5.616 5.616 0 00.226-2.028c-.023-.273-.02-.608-.226-.79z" stroke-width=".52"/><path d="M92.688 25.923l-.08-2.312-.106-1.116 1.036-3.135.054-1.834s-1.09.452-1.196.452c-.106 0-.903-.399-.903-.399l-.771.32-2.684-.798" stroke-width=".25"/><path d="M87.135 17.393l-2.604 3.853s-1.811 2.183-2.853 3.14c-1.146 1.054-3.71 2.839-3.71 2.839l-4.358 3.852-4.596 3.8-2.843 2.391-2.046 1.568-1.595 2.604-.69 1.275.637 1.196-.823 1.063s-.43 1.178-.24 1.727c.206.592.838.949 1.356 1.302.628.429 1.347.725 2.072.956.635.204 1.3.367 1.966.372 1.51.013 3.046-.251 4.464-.77 1.331-.487 3.667-2.152 3.667-2.152l3.48-3.56 4.279-4.73 2.285-3.136 1.674-2.258 1.753-2.179 2.817-3.348 1.355-1.302" stroke-width=".5"/><path d="M77.888 27.338l4.066-.113 3.56 1.355-5.26.983H75.35M73.757 30.958l3.839-.067 3.189 1.754-4.49.903-5.355 1.449 3.52 1.408 3.229 2.245-4.57-.2-5.713-.252 1.023.957-3.056.08-1.693.302M66.25 37.136l1.262 1.129M71.086 35.036l-1.82-.332M81.927 27.211l-1.58 2.312M77.543 30.878l-1.222 2.577" stroke-width=".25"/><path d="M74.42 36.325s-.742.475-.969.837c-.236.377-.345 1.289-.345 1.289M66.184 37.242s.147.7.066 1.036c-.083.346-.544.917-.544.917M62.116 42.11l2.753.272 2.142.92-2.086.865-3.1.535" stroke-width=".25"/><path d="M64.86 42.345s-.171.584-.16.883c.011.313.234.91.234.91M19.56 21.903s-1.54.282-1.672.282c-.131 0-1.315.883-1.315.883l-.3-.263.075.714.357 1.935-.188 1.86-.545 1.447" stroke-width=".25"/><path d="M19.467 22.09l-.395 1.447s-.304 1.034-.263 1.56c.051.645.345 1.255.62 1.841.4.853 1.484 2.405 1.484 2.405l.827 1.296.676 2.293 1.109 2.837.827 1.484 1.258 1.785.62 4.246-.62 1.653.677.564.3 1.954s-.606.64-.789 1.033c-.206.442-.32 1.428-.32 1.428s-1.3-.72-1.84-1.221a7.466 7.466 0 01-1.41-1.804c-.508-.899-.775-1.915-1.108-2.893-.225-.662-.378-1.348-.601-2.01-.222-.66-.733-1.954-.733-1.954l-.77-1.053" stroke-width=".5"/><path d="M26.183 43.528l-2.113.92 1.581.488M24.267 37.187c-.038 0-1.597 1.165-1.635 1.165-.037 0-2.348 2.132-2.348 2.132l3.288-.413 2.076-.347" stroke-width=".25"/><path d="M22.482 38.38s.277.631.46.92c.163.257.564.715.564.715M21.637 30.47l-2.518.01-1.785 1.428 2.931.441 2.067.554M22.557 33.43c-.037 0-1.7.15-1.7.15l-2.34 1.794 3.157.385 2.048.32" stroke-width=".25"/><path d="M20.829 33.617s-.146.584-.075.865c.12.475.808 1.23.808 1.23M19.222 30.517s-.143.439-.084.648c.132.475.92 1.156.92 1.156M25.526 49.86l-.047 1.005.197 1.334.094 1.268-.056 1.475M30.965 71.861l1.071-.338 2.123.169 2.65.225 2.367.076 2.48-.508 2.236-1.014 2.029-1.353 2.048-1.109.751-.112" stroke-width=".25"/><path d="M28.635 63.575c-.037 0-.25.76-.272 1.156-.027.488.038.987.178 1.456a5 5 0 00.79 1.597c.411.54 1.521 1.353 1.521 1.353s1.1-1.65 1.738-2.405c.315-.372.638-.746 1.024-1.043.291-.224.61-.43.958-.545.648-.211 2.067-.216 2.03-.235-.038-.018-.75-.783-1.231-1.005-.575-.265-1.24-.274-1.87-.338-.785-.08-1.577-.057-2.367-.056-.833 0-2.499.065-2.499.065z" stroke-width=".5"/><path d="M26.102 66.642s.571-1.421.611-1.5c.04-.08.917-1.223.996-1.33.08-.106 1.502-1.527 1.502-1.527l1.328-1.156 1.183-1.355.637-1.249.346-1.342.279-2.179-.093-1.594-.386-.518-.332.943-1.076-2.325-.252 1.183-.877-.864-.399-.863-.265.57-1.409-1.168-1.474-1.329-.173.678.465.85-.677-.372-.067 1.475.346 1.116-.519.372" stroke-width=".25"/><path d="M32.426 56.917s-.16-1.461-.173-1.514c-.013-.053-.943-1.634-.943-1.634l-1.09-.943-1.341-.532-1.9-.398.332.385-.678.04.28.85-.4.12.426.704-.266.172.16.492-.837 2.02 2.178 1.142 1.422.518 1.289.306.61.239-.198.292.465-.279.398-.558.252-.266.253-.93z" stroke-width=".25"/><path d="M32.505 57.82s-.524.338-.823.4c-.452.092-.93.023-1.382-.067-.424-.084-.892-.158-1.222-.438-.362-.309-.557-.793-.691-1.25-.136-.463-.137-.966-.093-1.447.04-.432.155-.86.319-1.262.176-.432.704-1.21.704-1.21v0" stroke-width=".25"/><path d="M28.64 52.214s-.552.768-.745 1.196c-.19.426-.319.882-.398 1.342-.072.42-.094.85-.067 1.275.021.315.012.66.173.93.137.23.389.378.625.505.245.132.797.253.797.253M30.725 53.304s-.472.314-.624.545c-.196.295-.298.657-.332 1.01-.036.363-.007.75.133 1.089.123.3.324.594.597.77.291.187.665.267 1.01.24.23-.02.47-.108.638-.266.118-.112.212-.439.212-.439M45.671 53.29c.237-.183.551-.275.85-.292.381-.02.78.075 1.117.253.293.155.552.397.73.677.197.31.326.683.332 1.05.006.345-.088.709-.279.996-.278.42-.693.82-1.182.943-.532.135-1.16.005-1.62-.292a1.945 1.945 0 01-.811-1.169c-.085-.376.045-.783.186-1.143.149-.38.354-.772.677-1.022zM48.807 52.108s.64.567.876.917c.257.379.458.805.572 1.249.105.408.16.845.093 1.262-.068.421-.278.813-.492 1.182-.173.3-.63.824-.63.824M45.226 58.319s-.833-.388-1.162-.697c-.216-.203-.375-.465-.505-.731-.165-.336-.339-1.07-.339-1.07l.06.153" stroke-width=".25"/><path d="M49.032 57.608c.495-.132.999-.235 1.488-.385.724-.221 1.496-.36 2.14-.757.418-.259.863-.574 1.062-1.023.17-.38.16-.85.04-1.25-.121-.4-.44-.72-.73-1.022a2.99 2.99 0 00-.798-.611c-.341-.17-.727-.24-1.102-.306-.547-.096-1.106-.116-1.661-.133a6.056 6.056 0 00-.678.014c-.521.043-1.043.11-1.554.226-.398.089-.79.208-1.17.358a5.079 5.079 0 00-.89.439 4.816 4.816 0 00-.836.69c-.262.27-.502.566-.691.89a4.78 4.78 0 00-.399.957c-.079.247-.189.5-.172.757.02.32.152.638.332.904.18.268.44.485.717.65.258.156.553.261.85.306.518.08 1.05.007 1.568-.066.47-.066.923-.214 1.382-.332.37-.096.734-.207 1.102-.306z" stroke-width=".25"/><path d="M43.1 56.38s-.482.583-.646.92c-.136.28-.323.586-.272.893.042.254.232.492.45.629.31.192.713.188 1.076.18.395-.008.778-.144 1.16-.246.554-.147 1.635-.526 1.635-.526" stroke-width=".25"/><path d="M41.646 52.892l.571.943.465-.797 1.01-1.78.518 1.169.412.066.438-.398.678-1.594.69.757 1.063-.571 1.502-.864 1.195-.784.957-.252 1.023.026-1.621 1.355 1.236-.212-.12.279 2.498-.558-.824.89 1.302.186-.558.186s2.338.757 2.405.797c.066.04-1.13.532-1.13.532l1.515.318-.16.558.89.465-1.076.598 1.74.598 2.246 1.329-1.142.465 2.231.81-.717.425 1.209.492.744 1.142s.558 1.329.505 1.329c-.053 0-1.847-.585-1.847-.585l-1.926-.438-.492.292-.133.465-2.285.252-1.886-.186-.864-.385-.08.465-1.992-1.275.478 1.036-1.887-.784.186.73-1.78-.916.133.598-1.554-.505-1.541.425-1.953-.04-1.74-.664s-.864-1.063-.878-1.13c-.013-.065-.398-1.766-.398-1.766l-.053-1.275.053-.997zM56.698 60.797l-3.8.61.612.253-3.189.359 1.036-.04-3.733 1.183.85-.093-2.258 1.315-.957-.253-1.9.744-2.045-.757-2.299-.305-1.5.624-1.024.452" stroke-width=".25"/><path d="M46.203 64.384l.332.823-1.21.585-.105 1.076-.28.85-.385.479-.637.943-.705.531.027-.996.545-1.01-.532-1.05-1.262-.743-1.567-.545-1.86-.359-2.02-.106M31.948 59.428l-1.276.532-1.475.08-1.54-.545-1.25.491-.916.505.16-.956-.652.704-.518.97" stroke-width=".25"/><path d="M26.686 65.088s.04-.638.027-.69c-.013-.054.173-1.01.173-1.01l-.611-.97-.917-.837-.89-.426M24.269 62.232l.279 1.461M28.25 64.73c-.047 0-.338.01-.366-.027-.028-.038.244-.968.244-.968l-.62.226" stroke-width=".25"/><path d="M31.012 71.852c.01-.066.63-.818.63-.818l-.808-1.907 1.183 1.644 1.466.865-1.503-.15z" stroke-width=".5"/><path d="M41.792 48.242l-.226-.664.718-.505.504.04.983-.465.093.677-.464.77-.944.52zM40.835 48.548l.399.65-.226.93-.65.877-.519-.797.24-.425s-.426-.2-.426-.252c0-.053.651-.89.651-.89zM38.843 52.4l.252-.345.917.093-.585.505-.65-.2zM33.887 52.693l.213-.465-.266-.372-.531.252zM33.17 51.045c.08-.12.69-.93.69-.93l.04-1.607-.81.558-.266.664zM32.784 48.282l.253-.465-.399-.505h-.531l-.531-.319-.625.465.053.332.598.12.24.598.477.252zM48.485 59.94l-.45.394-1.137.63-2.725.037-2.32-.338s-3.363 1.39-3.4 1.39l-.17-1.174 1.23-1.146.658-1.221-.037-2.18.376-.91.347-.414" stroke-width=".25"/><path d="M59.43 33.74l-4.416 3.08-.958-2.066-.094.808-1.841 1.597-1.447 1.747-1.09 2.405-1.296.958-1.954.207-1.616-.244-2.142 2.574-1.728 2.78-1.522 1.635-.489 1.879-.789 1.447-.958 2.198-.526.564-1.578-.057s-.526-1.897-.526-2.01c0-.113-.113-2.292-.113-2.292l-.019-1.26-.15-1.446-.958-2.123-.677-1.653.207-2.03-1.41.132 1.992-2.217-.47-1.935-.187-1.785s.3.282.3.188c0-.094-.225-1.034-.225-1.034V34.36" stroke-width=".5"/><path d="M50.871 40.419c.066-.057.602-1.513.63-1.616.028-.103.516-1.165.535-1.203.019-.037.742-.704.742-.704l.977-.63-.131 1.156-.366 1.221-.62.808-1.062 1.071-.366.188z" stroke-width=".25"/><path d="M53.032 36.774l.038.63.432.056M32.107 41.726s-.478-1.116-.485-1.143a68.668 68.668 0 00-.332-1.09 57.22 57.22 0 01-.253-1.036l-.332-1.209.611.519.386.65.571 1.196.16 1.056.146.532-.452.551z" stroke-width=".25"/><path d="M31.363 39.733c.08-.073.67-.711.638-.711h-.047l.033.013M47.65 52.312s1.763-.46 2.667-.517c.849-.053 1.718-.024 2.546.17.472.11.966.25 1.343.553.437.352.806.842.959 1.381.127.45.13.98-.076 1.4-.213.437-.671.727-1.099.958-.552.298-1.813.508-1.813.508M67.778 58.95l-.93-2.351M65.4 64.158c0-.053 1.09-1.568 1.09-1.568M64.018 61.474l-.199 1.01-.757.97s-.797.837-.904.85c-.106.013-.026 1.076-.026 1.076s1.196.625 1.262.611c.066-.013-.345.598-.412.625-.066.026-1.103.332-1.103.332l.08-.439h-.624l-2.803 1.382-1.435 1.13-1.74 2.125-1.528 2.365-.997.877-.704.877-1.435 1.567-1.01.877-.12.903M34.91 78.373l-.093-.81-.571-1.634-1.01-1.74-1.076-1.103-.943-.917M38.443 25.435c.056-.075 1.108-2.33 1.108-2.33l.64 1.748-.903 1.22.263 1.767-.45.996-.207-2.518-.094.282zM38.574 28.817l.508.902-.226.808-.282.375-.225-.807v-.62zM35.4 32.049l.807 1.615-.902.996-.244-.864-.263-.357.507-1.334zM33.445 31.898l1.447-1.409M36.057 29.136l1.991-2.837s-.47-1.146-.432-1.296c.038-.15.451-.47.451-.47l.132-2.386M46.691 18.07c-.056.15-.695 1.296-.695 1.296l.789 1.71 1.09-1.221-.376-1.165.282-.432M48.288 17.826l.752 1.54.958-.883M45.15 17.412l1.785-.281M45.094 24.627l1.353-2.01.507 2.123-1.447 1.353zM42.877 25.905l1.165-1.898.62 2.255-1.221 1.54zM50.994 23.5l.62-1.203.751-.695v2.086l-1.278.808zM53.117 23.406l.263 1.54 1.71-1.258-.113.958 1.785-.47M59.561 26.074l.526.714-1.259 1.277 2.03-.225M59.336 31.128l-.527.564 1.222-.113M53.173 29.456l1.503-1.146.019.92.432 1.26s-.601.243-.695.243c-.094 0-.019-.77-.019-.77l-1.202.545zM47.03 28.535l.074 2.01-.545.15.076-2.047zM50.449 30.865l.526 2.01-.92.282-.583-.601-.02 1.465-.713.451-.94-.977 1.579-.958zM54.225 32.255l-.131 1.635-.658-.113.413-1.503zM50.411 35.769c-.019.206-.169 1.371-.169 1.371l-.451.113-.413-.846zM47.226 36.378l-.372-.531 1.063-.904.053 1.183zM47.239 38.092l.943-.73s.067.943-.053.97c-.12.026-.518.198-.518.198zM44.542 37.056l-.306-.518s.837-.797.824-.731c-.013.066.013.85.013.85zM43.997 34.067s-.81-.638-.81-.691c0-.053 1.275-1.462 1.275-1.462l.359 1.887zM40.928 34.664l-.637-.597 1.195-1.276.226 1.594zM37.5 34.598l-.371-.279.61-1.568.652 1.25-.704.65.571 1.302-.717.319s-.611-.345-.585-.412c.027-.066.545-1.262.545-1.262zM34.126 35.036c.12-.053.797-.903.797-.903l-.717-.89-.425 1.342zM33.183 35.262l.624.731-.491.531-.359-.438zM33.409 36.976l.359.598-.293.598-.239-.479zM32.824 36.764l.32.57-.293.413M34.073 37.52l.744.944-.398.717s-.439-.318-.439-.372c0-.053.093-1.288.093-1.288zM34.79 35.98l.745.877-.412.717-.332-.226.026-.73zM36.08 36.843l.584 1.063-.425.399-.452-.306zM35.973 38.716l.571.984-.398.518-.412-.399zM38.218 40.072l-.305-.519.504-1.036.32 1.262zM39.905 38.145l-.69-.531.996-.957.146 1.13zM42.124 37.175l-.412-.531 1.116-1.05.014 1.422-.532.252-.053 1.422-.877.053s-.252-.704-.186-.784c.067-.08.93-.784.93-.784zM39.974 19.902l1.71.113s-.705 2.527-.658 2.442c.047-.084.799-1.494.799-1.494l-.414 1.851 1.024-.695.038-1.174h.066l.037-.79.451-.554M31.602 73.896l.093 1.581M36.732 67.859c.07.025.148.073.173.143.031.09.026.234-.058.279-.082.043-.199-.035-.26-.106-.07-.082-.144-.231-.077-.316.046-.058.152-.025.222 0zM38.665 65.753c.029-.083.123-.17.21-.16.087.01.172.113.17.2-.001.094-.096.198-.19.21-.06.008-.115-.051-.15-.1-.03-.042-.057-.101-.04-.15zM37.615 69.287c.086.033.158.162.123.246-.038.094-.19.121-.287.096-.09-.023-.213-.114-.192-.205.029-.124.238-.183.356-.137zM40.39 67.174c.103.019.193.164.166.265-.028.108-.186.193-.292.16-.085-.027-.14-.152-.12-.24.024-.1.145-.204.246-.185zM40.938 68.664c.108.031.23.17.194.278-.035.1-.203.126-.303.094-.1-.031-.216-.148-.19-.248.029-.104.196-.155.299-.124zM27.138 65.752s-5.274-1.523-7.944-2.152c-2.278-.537-4.57-1.028-6.882-1.382-3.17-.484-9.566-1.01-9.566-1.01M26.58 66.974s-4.195-.426-6.297-.584c-2.743-.207-5.487-.513-8.237-.478-2.124.027-4.237.313-6.35.531-1.012.104-3.03.372-3.03.372M27.271 67.904s-6.873-.068-10.31-.026c-2.967.036-5.934.13-8.9.239-2.092.077-6.271.292-6.271.292M27.112 68.648s-5.546-.033-8.317.054a112.04 112.04 0 00-6.191.345c-1.812.157-3.627.332-5.42.638-1.754.299-5.208 1.169-5.208 1.169" stroke-width=".25"/><path d="M27.005 68.223s-5.225.047-7.838.08c-2.365.03-4.736-.074-7.094.106-1.873.143-3.73.448-5.58.77-1.686.295-5.022 1.064-5.022 1.064M27.377 69.286s-5.353.656-7.997 1.17c-2.175.421-4.324.97-6.457 1.567-1.44.402-2.89.798-4.278 1.355-1.382.554-4.012 1.966-4.012 1.966M38.723 65.832s5.255-1.445 7.918-2.02c2.436-.525 4.89-.977 7.36-1.301 2.354-.31 4.729-.418 7.095-.612 1.708-.14 5.128-.398 5.128-.398M40.264 67.373s4.585-.384 6.882-.505c2.221-.117 4.445-.213 6.67-.212 1.904 0 3.812.044 5.712.186 2.516.187 7.52.876 7.52.876M36.57 68.064s6.43.323 9.646.478c2.444.118 4.89.213 7.334.346 2.729.148 5.46.267 8.183.504 2.753.24 8.237.93 8.237.93M40.769 68.888s5.374.083 8.05.292c2.447.19 4.875.565 7.308.877 3.254.417 6.514.795 9.751 1.328 1.104.182 3.295.638 3.295.638" stroke-width=".25"/><path d="M41.008 68.834s5.837.404 8.742.744c2.26.265 4.515.58 6.749 1.01 2.19.422 6.51 1.541 6.51 1.541M37.687 69.392s5.294.953 7.918 1.541c1.997.449 3.991.926 5.952 1.515 2.838.853 5.613 1.904 8.396 2.923a301.8 301.8 0 014.836 1.86" stroke-width=".25"/><path d="M37.341 69.552s5.037.917 7.467 1.7c1.647.531 3.213 1.29 4.782 2.02 1.416.658 2.752 1.479 4.172 2.125.67.305 2.046.824 2.046.824" stroke-width=".25"/><path d="M31.517 70.843l.882.677" stroke-width=".5"/></g></svg>