<svg width="100mm" height="100mm" viewBox="0 0 100 100" xmlns="http://www.w3.org/2000/svg"><g fill="none" stroke="#000" stroke-linejoin="bevel"><path d="M57.475 97.89c-3.383.019-6.851-.027-10.106-.952-2.494-.71-6.972-3.454-6.972-3.454s-8.1.022-12.142-.187c-3.325-.172-9.95-.877-9.95-.877l7.948-2.753-11.704-.814 2.128-4.569-8.074-5.257 4.006-3.943 3.818-2.942-5.57-2.754 3.567-1.69 4.944-4.005-1.001-.814s-1.325-4.957-1.94-7.447c-.792-3.203-1.746-6.379-2.254-9.639-.405-2.605-.65-5.249-.625-7.886.028-2.976.432-5.943.876-8.887.545-3.621 1.16-7.251 2.19-10.765.309-1.052.921-2.004 1.19-3.067.74-2.935 1.126-9.012 1.126-9.012l2.629-3.818L22.56 5.55l2.691-3.317s1.127 5.374 1.628 8.074c.478 2.58.695 5.21 1.314 7.76 1.637 6.745 6.321 19.84 6.321 19.84l4.694-2.69 3.568-6.26 2.816 4.632 2.816.688 6.948-6.509 1.877 3.505.814-1.94 4.068 7.948 1.001.063.689 1.377 1.001-2.003V26.391l2.754-.125s1.105-6.407 1.44-9.638c.37-3.575.625-10.765.625-10.765l.564.626.75-.376s1.155 2.307 1.628 3.505c.959 2.43 1.395 5.054 2.44 7.448.43.984 1.136 1.832 1.566 2.816 1.316 3.018 2.229 6.205 3.066 9.388.78 2.964 1.526 5.962 1.815 9.013.203 2.14.015 4.299-.062 6.446-.145 4.011-.751 12.017-.751 12.017l3.442 6.947 4.631 3.004-.688 1.44 1.19.375-3.13 2.128 4.256 2.88-1.628.75 1.94 2.19-1.814 3.38-2.003 1.565 2.44 4.006-9.513 1.502-.25-.876s-4.384 3.052-6.697 4.38c-.809.465-1.744.71-2.503 1.252-1.333.951-2.097 2.607-3.508 3.439-2.796 1.648-5.818 2.764-9.33 2.783z" stroke-width=".612"/><path d="M14.424 67.699l5.132 2.816.25 1.627-3.442 2.942 6.134 2.253-4.131 4.631 10.952 5.258M18.383 69.871l-1.956 2.271v0" stroke-width=".306"/><path d="M12.609 75.084l7.01 2.382-2.942 6.818m11.14-6.818l-5.953-2.672 5.328-1.9m52.322 13.143l-.062-1.096 7.385-3.536m2.003-1.565l-4.726-4.036 4.6-1.534m-.625-6.415l-3.38 1.878 3.911 3.818-2.284 1.032" stroke-width=".306"/><path d="M82.487 71.955l4.162 1.564-4.631 2.817m-36.113 2.002l.094 2.566 2.128 2.379 4.506 1.44s3.49.436 5.163.03c1.465-.355 4.006-2.096 4.006-2.096s2.096 1.631 3.348 1.94c1.46.36 4.507-.188 4.507-.188l1.502-1.032 1.627-2.598.5-3.974-1.439-2.848-3.035-1.815-2.723-2.065" stroke-width=".306"/><path d="M45.218 80.049l.254.742 1.333 1.525 1.124 1.22 1.168.498 3.442 1.126s1.452.862 2.253 1.096c1.583.46 3.266.613 4.913.563 1.684-.05 3.364-.389 4.976-.876.796-.241 2.284-1.002 2.284-1.002l2.567-.47" stroke-width=".306"/><path d="M64.681 85.943l-.688 4.193-5.195.313m-6.04 0l6.102 1.346m-8.198-16.742c-.135-1.155 1.141-2.124 2.096-2.786 1.216-.841 2.78-1.087 4.234-1.384a19.668 19.668 0 014.644-.406c1.577.058 4.547.758 4.672.758s2.69.92 3.755 1.815c.493.413 1.06.925 1.127 1.564.058.544-.254 1.133-.657 1.503-1.03.945-2.613 1.026-3.974 1.345-1.527.358-3.095.617-4.663.626-1.723.01-3.439-.307-5.132-.626-1.566-.295-3.212-.464-4.632-1.189-.567-.29-1.396-.588-1.47-1.22zM19.024 63.724l9.075 2.441-1.064-1.158 8.324 2.441.438.877 5.289 1.408 7.667.094 2.66.281 1.815-3.004 1.627-5.007s1.347-4.528 1.721-6.853c.228-1.415.313-4.287.313-4.287s.93 2.702 1.44 4.037c.945 2.473 3.004 7.353 3.004 7.353l1.47 3.943 2.441 3.255 2.973.219 4.35-.313 3.38-1.283.688-1.314 4.13-2.285-.03 1.22 3.285-1.97" stroke-width=".306"/><path d="M54.448 53.96l-1.69-3.754 2.222-2.848.376 1.283-.626 1.752zm5.57-.093l-.75-3.223-1.534-2.973 3.661 2.378v1.784zM47.845 54.9c-.873-.06-1.725-.466-2.44-.97-.647-.456-1.242-1.062-1.565-1.784a3.906 3.906 0 01-.282-2.285c.131-.678.425-1.434 1.001-1.815.788-.52 1.893-.474 2.817-.281.878.183 1.675.72 2.347 1.314.62.549 1.26 1.202 1.47 2.003a3.268 3.268 0 01-.281 2.316c-.266.487-.787.814-1.283 1.064-.547.275-1.173.48-1.784.438zm16.116-.908c-.403-.543-.79-1.149-.907-1.815a3.941 3.941 0 01.25-2.16c.34-.814.855-1.7 1.659-2.064.684-.311 1.55-.172 2.253.093.728.276 1.42.8 1.815 1.471.393.666.453 1.513.407 2.285-.045.75-.195 1.565-.658 2.159-.471.605-1.226 1.003-1.971 1.189-.558.139-1.193.133-1.721-.094-.475-.204-.819-.65-1.127-1.064zM18.023 27.768l-1.815 3.443s-.104 4.151-.063 6.227c.037 1.91.13 3.821.282 5.727.143 1.799.264 3.607.594 5.382.337 1.814 1.408 5.351 1.408 5.351l1.628 4.882 3.004-5.946s-1.056-3.846-1.502-5.789c-.405-1.763-.704-3.548-1.064-5.32-.422-2.077-.962-4.132-1.283-6.227-.267-1.741-.216-3.525-.532-5.258-.153-.838-.657-2.472-.657-2.472zm1.971 30.449l-.688 5.539M72.755 26.11l1.189-5.039 3.974 6.697m-13.049 8.168l8.105 3.849m-13.456-3.661l-2.347-5.101m-9.075 3.192l-1.565 1.658m-7.291-.657l.375 2.347m15.647.157c.156 0 3.16 1.877 3.16 1.877l2.097 2.535M26.41 57.747l2.565-1.502M48.346 69.2c.125-.093 3.599-2.346 3.599-2.346l.813-3.443-2.378-3.38-2.723-2.002-4.13-.876-3.411-.032-2.222.72-1.815 2.222-1.22 2.629-.188 3.066 1.783 2.316 4.945 1.127zm14.114-5.413L64.148 60l2.629-1.627s3.223-.97 3.348-.97 3.004.438 3.004.438l1.878 2.848 1.064 3.755-.657 3.192-3.192 1.346-4.1.187-1.783-.625-2.16-1.628z" stroke-width=".306"/><path d="M40.491 57.059l-2.159 1.627-1.252 2.316-.344 3.317.688 2.472 1.064 1.627 2.754.72 7.01.063 2.19-1.534.689-1.971-.751-4.162-1.44-1.972-2.19-1.564-3.411-.97z" stroke-width=".306"/><path d="M48.283 62.942s.385 1.068.438 1.627c.07.729.05 1.488-.156 2.19-.196.673-.448 1.418-1.001 1.847-.646.5-1.566.514-2.379.595-.665.066-1.364.103-2.003-.094a4.961 4.961 0 01-2.127-1.314c-.533-.57-.832-1.333-1.096-2.066-.245-.681-.494-1.406-.438-2.128.056-.71.348-1.414.751-2.003.443-.646 1.028-1.268 1.753-1.564.599-.246 1.298-.177 1.94-.094.328.042.946.297.946.297m8.216 7.087l3.12-1.859 2.566 3.718 1.55-3.762 2.677 1.217-.022.11m-31.023 4.072c.325-.734.924-1.459 1.681-1.726.463-.163 1.054-.096 1.46.177.478.32.832.93.842 1.505.01.58-.403 1.123-.797 1.549-.4.433-.915.92-1.505.93-.68.01-1.448-.419-1.77-1.018-.224-.417-.103-.984.089-1.417zm45.981-1.858c.51.31.96.806 1.15 1.372.214.629.355 1.496-.088 1.991-.318.356-.963.373-1.416.221-.623-.208-1.125-.807-1.372-1.416-.232-.574-.285-1.308 0-1.859.141-.272.451-.471.753-.53.326-.065.69.047.973.22zM40.27 93.743l-3.938-2.036-3.098-1.947-.841-1.24-1.549-1.239v-1.239l-1.24-.398 5.134-2.832-.575-.62 1.815-.487 2.478-1.947-1.15-.752 4.336-1.018-.221-.531 2.7-2.523 2.655-.974-1.46-.486 4.425-1.505 1.682-1.992M79.348 84.98l-.708-.885.708-.84-2.788-1.948.354-.575-2.301-1.726.398-.753-1.726-1.261-1.483-2.987-3.983-2.633-2.522-1.86" stroke-width=".306"/><path d="M30.102 23.857l3.911.25 1.816 13.08" stroke-width=".612"/><path d="M24.093 20.383l3.975-2.629M22.717 5.33l-1.22 1.065-1.034 7.135-1.564 2.096-1.19 3.161-.437 4.475m63.359 33.572l-5.31-7.17-5.975-6.019-5.576-5.354M22.966 52.32l3.85-6.24 4.293-6.462 3.497-1.903m-5.412 51.733l-4.083.36m45.391 1.83l-1.988.548M45.21 59.923c-.23.248-.452.63-.52.96-.096.453.092.965.364 1.339.254.348.482.73.881.892.454.185.906.264 1.391.198.337-.047.718-.129.957-.37.236-.237.39-.568.451-.897.079-.42-.01-.862-.121-1.273-.076-.278-.183-.562-.366-.785-.228-.28-.525-.54-.871-.642a2.047 2.047 0 00-1.352.089c-.379.164-.534.186-.814.489zm21.99-.489c.33-.15.744-.169 1.084-.045.329.12.62.357.863.609.202.209.382.488.476.763.131.385.071.831-.055 1.217-.129.392-.344.8-.686 1.03-.363.242-.86.354-1.284.254-.427-.101-.81-.434-1.04-.808-.249-.403-.291-.92-.276-1.394.01-.317.088-.642.243-.918.16-.285.378-.574.675-.708z" stroke-width=".306"/><path d="M67.529 58.17s.975.225 1.455.547c.585.394 1.05.967 1.424 1.565.36.576.594 1.233.75 1.893.178.75.264 1.485.298 2.253.031.704.047 1.47-.094 2.16-.122.6-.309 1.235-.72 1.69-.39.433-1.533.844-1.533.844l.031.032" stroke-width=".306"/><path d="M68.561 63.192s.273.75.298 1.143c.039.614-.013 1.257-.235 1.83-.17.44-.452.855-.814 1.158-.388.325-.886.516-1.377.642-.227.058-.704.047-.704.047m.658-7.417s-.414-.42-.673-.548c-.351-.172-1.142-.266-1.142-.266" stroke-width=".306"/></g></svg>