<svg width="333.831" height="355.238" viewBox="0 0 88.326 93.99" xmlns="http://www.w3.org/2000/svg"><g fill="none" stroke="#000" stroke-linejoin="bevel"><path d="M39.485 86.665h-.713l-1.427-1.207h-.384l-.44-.44s-1.93.793-2.908 1.153c-1.759.648-3.64.986-5.323 1.811-1.162.57-2.205 1.361-3.238 2.14-.808.61-1.418 1.489-2.305 1.976-1.643.904-5.378 1.647-5.378 1.647s4.51-4.074 6.42-6.421c1.536-1.884 4.007-6.092 4.007-6.092l.549-1.701-3.513.33s.935-1.062 1.208-1.702c.38-.89.549-2.854.549-2.854s-7.639 2.534-11.525 3.567c-2.029.54-4.067 1.087-6.147 1.372-1.36.187-2.742.171-4.116.22-1.023.036-3.073.055-3.073.055S6.982 75.566 9.521 73c4.215-4.258 12.348-13.06 12.348-13.06s-4.952-.006-7.409-.275c-1.812-.2-3.62-.504-5.378-.988A23.332 23.332 0 015.24 57.25C3.456 56.4.137 54.232.137 54.232s4.09.184 6.091-.165c1.67-.291 3.268-.932 4.83-1.592a33.29 33.29 0 004.939-2.579c1.166-.743 2.205-1.67 3.293-2.524.941-.74 2.798-2.25 2.798-2.25l-7.134-.988-6.53-1.208-6.531-1.317 12.512-5.158 5.982-2.525 6.86-2.414s-3.58-2.122-5.213-3.403c-1.518-1.19-3.014-2.451-4.226-3.951-.939-1.162-1.628-2.511-2.305-3.842-.595-1.169-1.202-2.354-1.537-3.622-.286-1.086-.455-2.227-.384-3.347.083-1.298.933-3.787.933-3.787s1.36 2.724 2.25 3.951a19.704 19.704 0 002.744 3.019 26.575 26.575 0 004.226 3.128c1.006.598 2.098 1.041 3.183 1.481.772.314 2.36.824 2.36.824s-.939-3.499-1.317-5.269a81.053 81.053 0 01-.988-5.543 74.871 74.871 0 01-.55-5.158c-.138-1.936-.219-5.818-.219-5.818s3.198 3.246 4.72 4.94c1.648 1.834 4.775 5.652 4.775 5.652l.274-.494 2.58 1.976 1.536.604 1.866.439-1.592-1.263s4.89.072 7.3.44c2.104.32 6.2 1.536 6.2 1.536s-1.1-2.65-1.7-3.951c-.625-1.352-1.524-2.588-1.976-4.006-.14-.442-.22-1.372-.22-1.372l2.086 1.591s3.669.374 5.433.878c1.773.508 3.475 1.273 5.103 2.14 1.585.845 3.117 1.819 4.5 2.964 1.336 1.105 2.486 2.423 3.623 3.732 1.213 1.398 2.431 2.814 3.402 4.39 1.137 1.846 2.799 5.872 2.799 5.872l.274-1.866 1.921 7.135 1.427-3.842s.274 3.528.768 5.214c.463 1.579 1.32 3.015 2.03 4.5.7 1.46 1.626 2.819 2.196 4.335.286.76.555 1.55.604 2.36.058.976-.385 2.909-.385 2.909s.389 1.708.44 2.579c.08 1.39-.033 2.791-.22 4.17-.148 1.096-.307 2.21-.713 3.239-.58 1.464-2.415 4.06-2.415 4.06l.549 3.952-.33 2.415s1.785 3.26 2.58 4.939c.638 1.348 1.345 2.682 1.756 4.116.23.8.532 1.65.384 2.47-.12.66-.517 1.276-.988 1.755-.609.62-1.45.978-2.25 1.318-.997.423-2.047.816-3.128.878-1.258.071-3.732-.604-3.732-.604l-1.646.439" stroke-width=".5"/><path d="M73.016 36.396s.09 1.877-.054 2.799c-.141.893-.34 1.81-.785 2.598-.362.641-.83 1.296-1.482 1.64-.925.49-2.067.498-3.112.426-.947-.065-1.968-.22-2.744-.768-.504-.356-.806-.954-1.068-1.514-.276-.59-.423-1.242-.503-1.888-.101-.817 0-1.647.035-2.47.044-1.044.273-2.084.22-3.128-.044-.853-.44-2.525-.44-2.525l-.439-1.591s1.734-.095 2.58-.274c.554-.118 1.052-.525 1.619-.522.723.004 1.434.32 2.058.686a5.956 5.956 0 011.865 1.701c.474.68.586 1.553.933 2.305.406.88 1.34 2.58 1.34 2.58" stroke-width=".5"/><path d="M62.644 30.057l-3.128-2.799-5.598-4.72-5.213-3.95-4.116-2.415-4.5-2.305-1.592-1.235-.713-1.043M29.086 21.77s.61 2.084.987 3.101c.488 1.314 1.003 2.624 1.647 3.87.528 1.02 1.2 1.961 1.81 2.935.768 1.223 1.437 2.518 2.333 3.65.84 1.06 2.826 2.908 2.826 2.908l4.062 2.415 4.115 1.784 4.94 1.81s-.864 1.09-1.135 1.72c-.416.964-.405 2.064-.718 3.066-.479 1.532-1.2 2.98-1.766 4.482-.397 1.055-.922 2.077-1.145 3.182-.24 1.193-.194 3.648-.194 3.648M87.439 79.627s-1.374.017-2.037-.136c-1.083-.25-2.066-.82-3.085-1.261-1.084-.47-2.266-.78-3.221-1.475-.689-.5-1.727-1.882-1.727-1.882l-1.688-.99 1.436.272-3.493-3.318 1.203.33-1.785-2.192 1.106.271-2.561-2.735.834.31-.795-1.979M82.491 79.064c.224.174.653.47.485.699-.192.262-.686-.078-.931-.291-.194-.17-.504-.51-.33-.699.187-.203.558.122.776.291zM77.699 82.363l-6.306-.854 1.048-1.92-.097-.583-.388-.213-4.793.33.543-2.251-.155-.602-.582-.194-4.695-.31-.233-.35.077-.485.602-1.649-13.233-6.17" stroke-width=".25"/><path d="M49.37 67.073l7.645 15.852-1.862-1.203 1.862 4.385c3.556.772 5.165.694 8.703-.978 0 0-1.54-1.64-2.031-2.635-.36-.73-.52-1.553-.631-2.36-.184-1.331-.055-4.033-.055-4.033l4.273 2.61m.594.362l.047.06L71.55 81.3m.734.3l-.016.127.776.41 1.543.261 1.537.302" stroke-width=".5"/><path d="M26.314 75.525l5.817-2.415 8.534-4.884 1.866 2.552 1.893 2.14 4.528 7.409-4.802 2.167-4.596 4.144" stroke-width=".25"/><path d="M41.186 42.378s-.871 1.217-1.29 1.838c-1.026 1.526-2.483 2.87-2.99 4.637-.369 1.284-.324 2.726.055 4.007.394 1.336 1.307 2.49 2.222 3.54a11.812 11.812 0 002.882 2.414c1.274.75 2.724 1.173 4.143 1.592 1.927.567 3.927.853 5.9 1.234 2.052.397 4.167.51 6.173 1.098.618.18 1.34.275 1.784.74.261.275.524.719.384 1.07-.261.659-1.222.736-1.893.961-1.463.492-3.031.581-4.555.824-1.395.221-2.791.453-4.199.576-1.942.17-3.905.421-5.844.22-1.688-.176-3.354-.63-4.94-1.236-1.41-.539-2.754-1.269-4.005-2.112-1.27-.857-2.5-1.815-3.513-2.964-.9-1.022-1.724-2.162-2.222-3.43-.619-1.573-.868-3.304-.878-4.994-.01-1.53.329-3.055.74-4.527.343-1.226.75-2.463 1.427-3.54.52-.828 1.16-1.628 1.976-2.168.897-.594 1.973-.989 3.046-1.07.984-.075 1.947.326 2.908.549.906.21 2.69.74 2.69.74z" stroke-width=".5"/><path d="M71.617 64.796s1.459-.281 2.058-.686c.785-.53 1.347-1.358 1.838-2.168.452-.743.812-1.563.988-2.415.191-.922.055-2.826.055-2.826s-1.71-1.618-2.661-2.305a16.974 16.974 0 00-2.58-1.536c-1.197-.576-2.464-1.002-3.732-1.4-1.098-.344-2.224-.596-3.347-.85-1.41-.32-2.85-.503-4.253-.851-1.186-.294-2.429-.48-3.513-1.043-.693-.36-1.838-1.454-1.838-1.454L52.876 46l1.81 2.387-2.387-1.4 1.372 1.674v.467l3.458 2.003-.796.466 2.387.906-.439.466 2.882 1.4.054 1.18s.286 1.567.61 2.285c.325.718.804 1.364 1.311 1.968.69.822 1.493 1.553 2.333 2.222.789.63 1.65 1.169 2.524 1.674.602.349 1.197.742 1.866.933.565.162 1.756.165 1.756.165z" stroke-width=".25"/><path d="M72.053 64.717s.42-1.062.442-1.622c.028-.726-.161-1.459-.411-2.14a8.605 8.605 0 00-1.345-2.388c-.585-.734-1.342-1.32-2.085-1.893-1.046-.808-2.177-1.505-3.32-2.168-.765-.443-1.543-.872-2.36-1.207-.311-.128-.96-.302-.96-.302l-.851 1.482" stroke-width=".25"/><path d="M73.099 64.384s.357-1.194.384-1.81c.035-.82-.047-1.663-.302-2.443-.222-.677-.62-1.292-1.043-1.866-.59-.802-1.309-1.51-2.058-2.167-.748-.657-1.538-1.285-2.414-1.757a10.555 10.555 0 00-2.497-.933c-1.019-.248-3.122-.377-3.122-.377M64.73 50.72s1.517-.533 2.305-.522c.925.013 1.816.38 2.689.686 1.278.448 2.543.975 3.704 1.674a12.37 12.37 0 012.305 1.783c.45.444 1.135.852 1.18 1.482.022.307-.467.796-.467.796M55.428 82.055c-.055-.11-2.717-2.277-2.717-2.277l-3.21-1.454M36.385 85.156l1.262-2.497-.302-1.152 1.646-3.98M21.683 45.051s1.677-.384 2.522-.543c1.597-.3 4.812-.776 4.812-.776M21.489 60.108s1.598-.2 2.367-.427c1.062-.314 2.146-.664 3.066-1.28.425-.286 1.086-1.087 1.086-1.087M26.922 31.392s1.608.206 2.406.116c.814-.091 2.367-.66 2.367-.66M37.592 37.164l-1.729-4.692 2.36 3.238-2.003-4.857-.412-3.348 1.208 1.921-.906-4.5 1.92 1.839-2.963-6.037 1.894 1.207-1.482-2.47-.796-4.006 1.948 3.128-.713-2.03-2.14-3.869 1.125.439-2.305-3.65 1.29.632-1.372-1.73-.33-1.536M51.943 6.185l5.049 5.049.22 1.81.932 1.51s-2.387.055-2.497.055c-.11 0-1.948-.659-1.948-.659M72.038 34.623l-.448-3.633-.302-4.28s1.393 2.968 2.25 4.363c1.022 1.663 3.43 4.747 3.43 4.747s-.192-3.842-.22-4.007c-.027-.164.028-4.033.028-4.033l.247-1.976M79.038 31.333l.29 1.747 1.068 2.192M83.054 67.345l-1.261-2.057 1.147-3.471" stroke-width=".25"/><path d="M83.52 59.778l1.979.718 2.212.97.388.66-.291.64-1.494.99-1.63.426-1.436.136" stroke-width=".5"/><path d="M51.723 44.353s.837.59.906.604c.068.014 1.29 1.111 1.29 1.111l.466 1.002M85.803 46.988s-.417 1.388-.878 1.92c-.2.23-.466.459-.768.494-.385.046-.783-.158-1.098-.384-.508-.365-1.152-1.482-1.152-1.482l-.714.55-3.128-3.349-2.524-3.512-2.432-4.922s.018 1.94-.147 2.892c-.155.891-.34 1.81-.785 2.598-.362.641-.83 1.296-1.482 1.64-.925.49-2.067.498-3.112.426-.947-.065-1.968-.22-2.744-.768-.504-.356-.806-.954-1.068-1.514-.276-.59-.423-1.242-.503-1.888-.101-.817 0-1.647.035-2.47.044-1.044.273-2.084.22-3.128-.044-.853-.44-2.525-.44-2.525l-.439-1.591s1.734-.095 2.58-.274c.554-.118 1.052-.525 1.619-.522.723.004 1.434.32 2.058.686a5.956 5.956 0 011.865 1.701c.474.68.586 1.553.933 2.305.406.88 1.34 2.58 1.34 2.58" stroke-width=".25"/><path d="M39.403 86.693l11.058-3.266-2.442 2.415 8.89.192" stroke-width=".5"/></g></svg>